<svg width="617" height="576" viewBox="0 0 617 576" fill="none" xmlns="http://www.w3.org/2000/svg">
<ellipse cx="290.37" cy="288" rx="290.37" ry="285" fill="#FEF9F3"/>
<path d="M484.445 503.424H117.993" stroke="#66B0F0" stroke-width="6" stroke-miterlimit="10"/>
<path d="M150.002 512.245H359.851" stroke="#66B0F0" stroke-width="6" stroke-miterlimit="10"/>
<path d="M465.562 393.968H406.955C404.181 393.968 401.927 396.963 401.927 400.649V503.424H470.577V400.649C470.589 396.963 468.336 393.968 465.562 393.968Z" fill="#D0F0E4"/>
<path d="M465.562 393.968H406.955C404.181 393.968 401.927 396.963 401.927 400.649V503.424H470.577V400.649C470.589 396.963 468.336 393.968 465.562 393.968Z" stroke="#FFCF2D" stroke-width="6" stroke-miterlimit="10"/>
<path d="M478.601 278.504H394.027V503.408H478.601V278.504Z" stroke="#FFCF2D" stroke-width="6" stroke-miterlimit="10"/>
<path d="M480.817 250.346H190.778V278.504H497.125" stroke="#FFCF2D" stroke-width="6" stroke-miterlimit="10"/>
<path d="M465.562 331.365H407.066C404.292 331.365 402.039 328.369 402.039 324.683V297.232C402.039 293.546 404.292 290.551 407.066 290.551H465.562C468.335 290.551 470.589 293.546 470.589 297.232V324.699C470.589 328.386 468.335 331.365 465.562 331.365Z" stroke="#FFCF2D" stroke-width="6" stroke-miterlimit="10"/>
<path d="M465.562 381.065H407.066C404.292 381.065 402.039 378.07 402.039 374.384V346.933C402.039 343.247 404.292 340.251 407.066 340.251H465.562C468.335 340.251 470.589 343.247 470.589 346.933V374.384C470.589 378.07 468.335 381.065 465.562 381.065Z" stroke="#FFCF2D" stroke-width="6" stroke-miterlimit="10"/>
<path d="M436.512 315.961C438.735 315.961 440.536 313.566 440.536 310.612C440.536 307.658 438.735 305.264 436.512 305.264C434.289 305.264 432.488 307.658 432.488 310.612C432.488 313.566 434.289 315.961 436.512 315.961Z" stroke="#66B0F0" stroke-width="6" stroke-miterlimit="10"/>
<path d="M436.512 365.809C438.735 365.809 440.536 363.415 440.536 360.461C440.536 357.507 438.735 355.112 436.512 355.112C434.289 355.112 432.488 357.507 432.488 360.461C432.488 363.415 434.289 365.809 436.512 365.809Z" stroke="#66B0F0" stroke-width="6" stroke-miterlimit="10"/>
<path d="M461.636 428.198L461.55 428.906L461.513 429.317L460.225 440.229L460.089 441.397L459.507 446.367L459.296 448.112L458.751 452.72L458.615 453.888L457.29 465.178V465.227L457.154 466.395L457.08 466.922L455.817 477.718L455.68 478.886L455.086 483.972V483.988L454.875 485.733L454.343 490.209L454.207 491.377L452.882 502.716L452.869 502.782L452.808 503.309L452.795 503.424H418L417.988 503.292L417.926 502.832L417.913 502.683L416.576 491.361L416.44 490.176L415.92 485.782L415.722 484.021L415.115 478.853L414.979 477.685L413.716 466.971L413.641 466.363L413.505 465.211V465.194L412.168 453.855L412.032 452.687L411.499 448.161L411.301 446.416L410.707 441.364L410.57 440.196L409.295 429.367L409.159 428.198H461.636Z" fill="white"/>
<path d="M453.13 503.934H417.666L417.517 502.716L408.701 427.688H462.082L453.13 503.934ZM418.322 502.914H452.461L461.178 428.725H409.592L418.322 502.914Z" fill="#66B0F0"/>
<path d="M462.119 428.198C462.119 428.429 462.095 428.676 462.033 428.906C461.612 430.634 459.68 432.23 456.646 433.547C456.423 433.646 456.2 433.728 455.978 433.827C454.021 434.6 451.681 435.275 449.043 435.785C448.796 435.835 448.548 435.884 448.288 435.933C445.96 436.361 443.422 436.674 440.734 436.855C440.462 436.871 440.202 436.888 439.93 436.904C438.456 436.987 436.933 437.036 435.385 437.036C434.196 437.036 433.02 437.003 431.868 436.954C431.584 436.937 431.299 436.921 431.014 436.904C427.918 436.74 424.996 436.394 422.346 435.9C422.024 435.834 421.715 435.785 421.405 435.719C416.91 434.814 413.295 433.481 411.078 431.885C409.79 430.963 408.985 429.959 408.725 428.906L408.651 428.215C408.651 423.344 420.613 419.41 435.373 419.41C450.046 419.41 461.958 423.311 462.095 428.149C462.119 428.149 462.119 428.165 462.119 428.198Z" fill="#66B0F0"/>
<path d="M452.894 502.733V503.391L452.808 503.309L452.795 503.407H452.473L448.523 496.627L448.115 495.919L444.14 489.106L443.731 488.398L439.756 481.585L439.348 480.878L435.373 474.064L434.964 473.357L430.989 466.543L430.581 465.836L426.618 459.022L426.21 458.315L422.235 451.502L421.826 450.794L417.864 443.981L417.455 443.273L413.493 436.46L413.084 435.752L409.283 429.235L409.221 428.758C409.468 429.795 410.261 430.782 411.524 431.687L413.48 435.044L413.889 435.752L417.864 442.565L418.272 443.273L422.247 450.086L422.656 450.794L426.631 457.607L427.039 458.315L431.014 465.128L431.423 465.836L435.398 472.649L435.806 473.357L439.781 480.17L440.19 480.878L444.165 487.691L444.573 488.398L448.548 495.212L448.957 495.919L452.907 502.7L452.894 502.733Z" fill="#66B0F0"/>
<path d="M454.343 490.209L454.207 491.377L452.894 489.123L452.486 488.415L448.511 481.602L448.102 480.894L444.127 474.081L443.719 473.373L439.744 466.56L439.335 465.852L435.36 459.039L434.952 458.331L431.014 451.584L430.606 450.876L426.631 444.063L426.222 443.355L422.247 436.542L421.839 435.834L421.665 435.538C421.962 435.604 422.272 435.653 422.582 435.719L422.643 435.834L426.618 442.648L427.027 443.355L431.002 450.169L431.41 450.876L435.385 457.69L435.794 458.397L439.769 465.21L440.177 465.918L444.152 472.731L444.561 473.439L448.536 480.252L448.944 480.96L452.919 487.773L453.328 488.481L454.343 490.209Z" fill="#66B0F0"/>
<path d="M455.817 477.718L455.68 478.886L452.894 474.114L452.486 473.406L448.511 466.593L448.102 465.885L444.127 459.072L443.719 458.364L439.744 451.551L439.335 450.843L435.361 444.03L434.952 443.322L431.076 436.674C431.361 436.69 431.633 436.707 431.918 436.723L435.361 442.615L435.769 443.322L439.744 450.136L440.153 450.843L444.127 457.657L444.536 458.364L448.511 465.178L448.919 465.885L452.894 472.698L453.303 473.406L455.817 477.718Z" fill="#66B0F0"/>
<path d="M457.29 465.227L457.154 466.395L456.869 465.902L452.894 459.088L452.486 458.381L448.511 451.567L448.102 450.86L444.127 444.047L443.719 443.339L439.843 436.69C440.103 436.674 440.375 436.657 440.635 436.641L444.127 442.631L444.536 443.339L448.511 450.152L448.919 450.86L452.894 457.673L453.303 458.381L457.278 465.194L457.29 465.227Z" fill="#66B0F0"/>
<path d="M426.878 503.16L426.631 503.407L426.618 503.424H426.21L422.247 496.643L421.839 495.936L417.876 489.123L417.468 488.431L415.92 485.782L415.722 484.021L417.876 487.724L418.285 488.431L422.247 495.228L422.656 495.936L426.631 502.749L426.878 503.16Z" fill="#66B0F0"/>
<path d="M418.111 503.161L417.988 503.292L417.926 502.831L418.111 503.161Z" fill="#66B0F0"/>
<path d="M435.633 503.161L435.385 503.407L435.373 503.424H434.964L431.014 496.644L430.606 495.936L426.631 489.123L426.222 488.431L422.247 481.618L421.839 480.927V480.911L417.876 474.114L417.467 473.406L413.716 466.971L413.641 466.362L413.505 465.21L413.901 465.902L417.876 472.715L418.285 473.406L422.247 480.219L422.656 480.927L426.631 487.724L427.039 488.431L431.014 495.228L431.423 495.936L435.385 502.749L435.633 503.161Z" fill="#66B0F0"/>
<path d="M444.387 503.161L444.14 503.407L444.127 503.424H443.719L439.769 496.644L439.36 495.936L435.385 489.123L434.977 488.431L431.014 481.618L430.606 480.927L426.631 474.114L426.222 473.406L422.247 466.609L421.839 465.902L417.876 459.088L417.468 458.397L413.493 451.584L413.084 450.893L411.499 448.161L411.301 446.416L413.493 450.185L413.901 450.893L417.876 457.69L418.285 458.397L422.247 465.194L422.656 465.902L426.631 472.715L427.039 473.406L431.014 480.219L431.423 480.927L435.385 487.724L435.794 488.431L439.769 495.228L440.177 495.936L444.14 502.749L444.387 503.161Z" fill="#66B0F0"/>
<path d="M458.751 452.719L458.615 453.888L457.278 451.584L456.869 450.876L452.894 444.063L452.486 443.355L448.511 436.542L448.102 435.834L448.053 435.752C448.3 435.703 448.548 435.653 448.783 435.604L448.919 435.834L452.894 442.648L453.303 443.355L457.278 450.169L457.686 450.876L458.751 452.719Z" fill="#66B0F0"/>
<path d="M460.225 440.228L460.089 441.397L457.278 436.575L456.869 435.867L455.618 433.711C455.841 433.629 456.064 433.53 456.275 433.432L457.278 435.16L457.686 435.867L460.225 440.228Z" fill="#66B0F0"/>
<path d="M461.996 428.462L461.649 429.054L461.55 428.89C461.612 428.659 461.637 428.429 461.637 428.198C461.637 428.165 461.637 428.149 461.637 428.116L461.649 428.1L461.996 428.462Z" fill="#66B0F0"/>
<path d="M459.507 446.367L459.296 448.111L457.686 450.893L457.278 451.584L453.303 458.397L452.894 459.088L448.932 465.902L448.523 466.609L444.548 473.406L444.14 474.114L440.177 480.927L439.769 481.618L435.794 488.431L435.385 489.123L431.423 495.936L431.014 496.644L427.052 503.424H426.643L426.631 503.407L426.395 503.161L426.631 502.749L430.605 495.936L431.014 495.228L434.977 488.431L435.385 487.724L439.36 480.927L439.769 480.219L443.731 473.406L444.14 472.715L448.115 465.902L448.523 465.194L452.486 458.397L452.894 457.689L456.869 450.893L457.278 450.185L459.507 446.367Z" fill="#66B0F0"/>
<path d="M461.513 429.317L457.686 435.884L457.278 436.591L453.303 443.405L452.894 444.112L448.92 450.926L448.511 451.633L444.536 458.447L444.127 459.154L440.177 465.902L439.769 466.609L435.794 473.423L435.385 474.13L431.41 480.943L431.002 481.651L427.027 488.464L426.618 489.172L422.644 495.985L422.235 496.693L418.285 503.473H417.988L417.975 503.342L417.926 502.881L417.876 502.799L417.913 502.733L421.851 495.985L422.26 495.278L426.235 488.464L426.643 487.757L430.618 480.943L431.027 480.236L435.001 473.423L435.41 472.715L439.385 465.902L439.793 465.194L443.768 458.381L444.177 457.673L448.152 450.86L448.56 450.152L452.535 443.339L452.944 442.631L456.906 435.818L457.315 435.11L459.259 431.77C460.534 430.864 461.339 429.877 461.599 428.824L461.513 429.317Z" fill="#66B0F0"/>
<path d="M449.093 435.588L448.919 435.884L448.511 436.591L444.536 443.405L444.127 444.112L440.152 450.926L439.744 451.633L435.769 458.447L435.36 459.154L431.386 465.967L430.977 466.675L427.002 473.488L426.594 474.196L422.619 481.009L422.21 481.717L418.235 488.53L417.827 489.238L416.526 491.46L416.39 490.291L417.418 488.53L417.827 487.823L421.789 481.009L422.198 480.302L426.173 473.488L426.581 472.781L430.544 465.967L430.952 465.26L434.927 458.447L435.336 457.739L439.31 450.926L439.719 450.218L443.694 443.405L444.103 442.697L448.077 435.884L448.139 435.769C448.35 435.736 448.56 435.686 448.758 435.653C448.895 435.62 448.994 435.604 449.093 435.588Z" fill="#66B0F0"/>
<path d="M439.67 436.74L435.794 443.372L435.385 444.079L431.41 450.893L431.002 451.6L427.027 458.414L426.618 459.121L422.643 465.935L422.235 466.642L418.26 473.455L417.851 474.163L415.09 478.903L414.954 477.734L417.443 473.455L417.851 472.748L421.826 465.935L422.235 465.227L426.21 458.414L426.618 457.706L430.593 450.893L431.002 450.185L434.977 443.372L435.385 442.664L438.828 436.773C439.1 436.773 439.385 436.756 439.67 436.74Z" fill="#66B0F0"/>
<path d="M455.086 483.988L454.875 485.733L453.303 488.431L452.894 489.123L448.932 495.936L448.523 496.644L444.561 503.424H444.152L444.14 503.407L443.904 503.161L444.14 502.749L448.115 495.936L448.523 495.228L452.486 488.431L452.894 487.724L455.086 483.988Z" fill="#66B0F0"/>
<path d="M457.08 466.922L453.303 473.406L452.894 474.114L448.932 480.927L448.523 481.618L444.548 488.431L444.14 489.123L440.177 495.936L439.769 496.644L435.806 503.424H435.398L435.385 503.407L435.15 503.161L435.385 502.749L439.36 495.936L439.769 495.228L443.731 488.431L444.14 487.724L448.115 480.927L448.523 480.219L452.486 473.406L452.894 472.715L456.869 465.902L457.278 465.194L457.29 465.177V465.227L457.154 466.395L457.08 466.922Z" fill="#66B0F0"/>
<path d="M430.915 436.723L427.039 443.372L426.631 444.079L422.656 450.893L422.247 451.6L418.272 458.414L417.864 459.121L413.889 465.934L413.629 466.395L413.493 465.26L413.48 465.243L413.493 465.227L417.455 458.43L417.864 457.722L421.826 450.909L422.235 450.202L426.21 443.388L426.618 442.681L430.11 436.69C430.395 436.69 430.655 436.707 430.915 436.723Z" fill="#66B0F0"/>
<path d="M422.718 435.785L422.668 435.884L422.26 436.591L418.285 443.405L417.876 444.112L413.901 450.926L413.493 451.633L412.168 453.904L412.032 452.736L413.084 450.926L413.493 450.218L417.455 443.405L417.864 442.697L421.839 435.884L421.975 435.653C422.173 435.686 422.383 435.736 422.594 435.769L422.718 435.785Z" fill="#66B0F0"/>
<path d="M415.164 433.711L413.901 435.867L413.493 436.575L410.694 441.364L410.558 440.196L413.084 435.867L413.493 435.16L414.508 433.432C414.719 433.53 414.942 433.629 415.164 433.711Z" fill="#66B0F0"/>
<path d="M464.187 418.538H452.758V413.914H459.692C461.859 413.914 463.667 415.888 464.187 418.538Z" fill="white" stroke="#FFCF2D" stroke-width="5" stroke-miterlimit="10"/>
<path d="M459.767 413.914C456.522 413.963 453.687 416.843 452.82 421.007L450.182 433.728C449.811 433.81 449.427 433.893 449.043 433.958C448.796 434.008 448.548 434.057 448.288 434.106C445.96 434.534 443.422 434.847 440.735 435.028C440.462 435.045 440.202 435.061 439.93 435.077C438.456 435.16 436.933 435.209 435.385 435.209C434.196 435.209 433.02 435.176 431.869 435.127C431.584 435.11 431.299 435.094 431.014 435.077C430.903 435.077 430.791 435.061 430.68 435.061L433.602 421.007C434.469 416.81 437.342 413.914 440.623 413.914H459.767Z" fill="white" stroke="#FFCF2D" stroke-width="5" stroke-miterlimit="10"/>
<path d="M451.941 139.688L481.176 250.346H374.116L402.571 139.688H451.941Z" fill="#FFCF2D"/>
<path d="M427.485 126.506C427.485 121.898 430.296 118.162 433.763 118.162H437.391C440.858 118.162 443.669 121.898 443.669 126.506V234.481" stroke="#66B0F0" stroke-width="6" stroke-miterlimit="10"/>
<path d="M452.102 246.824V250.165H425.628V246.824C425.628 243.977 426.358 241.344 427.584 239.254C429.281 236.357 431.943 234.481 434.915 234.481H442.802C442.926 234.481 443.062 234.481 443.186 234.498C448.152 234.761 452.102 240.176 452.102 246.824Z" fill="white" stroke="#FE5244" stroke-width="6" stroke-miterlimit="10"/>
<path d="M457.983 140.149H396.727V137.598C396.727 131.493 400.454 126.555 405.035 126.555H449.675C454.269 126.555 457.983 131.509 457.983 137.598V140.149Z" fill="#FE5244"/>
<path d="M457.983 138.108H396.727" stroke="white" stroke-width="5" stroke-miterlimit="10" stroke-linecap="round"/>
<path d="M451.582 140.149C451.582 143.062 450.22 145.432 448.523 145.432H405.655C403.971 145.432 402.596 143.062 402.596 140.149H451.582Z" fill="white"/>
<path d="M443.669 237.707C443.669 242.99 440.041 247.285 435.571 247.285C431.547 247.285 428.203 243.813 427.584 239.254C429.281 236.357 431.943 234.481 434.915 234.481H442.803C442.926 234.481 443.063 234.481 443.186 234.498C443.508 235.502 443.669 236.588 443.669 237.707Z" fill="white" stroke="#FE5244" stroke-width="6" stroke-miterlimit="10"/>
<path d="M435.794 232.227V237.394C435.794 238.448 435.063 239.303 434.172 239.303C433.28 239.303 432.55 238.448 432.55 237.394V232.227H432.574C432.723 233.132 433.379 233.823 434.159 233.823C434.939 233.823 435.596 233.132 435.744 232.227H435.794Z" fill="#FE5244"/>
<path d="M435.447 232.046C435.447 232.161 435.435 232.276 435.422 232.391C435.311 233.214 434.791 233.823 434.159 233.823C433.54 233.823 433.02 233.214 432.896 232.391C432.884 232.276 432.871 232.161 432.871 232.046C432.871 231.058 433.441 230.268 434.159 230.268C434.865 230.268 435.447 231.075 435.447 232.046Z" fill="white" stroke="#FE5244" stroke-width="6" stroke-miterlimit="10"/>
<path d="M393.272 175.334H389.037V250.346H393.272V175.334Z" fill="#3FB1B5"/>
<path d="M387.266 250.346H380.01C379.242 250.346 378.623 249.523 378.623 248.503V192.746C378.623 191.726 379.242 190.903 380.01 190.903H387.266C388.034 190.903 388.653 191.726 388.653 192.746V248.503C388.653 249.523 388.034 250.346 387.266 250.346Z" fill="white" stroke="#FFCF2D" stroke-width="5" stroke-miterlimit="10"/>
<path d="M410.608 249.145H402.274C401.667 249.145 401.147 248.569 401.036 247.779L393.557 196.136C393.408 195.1 394.002 194.145 394.795 194.145H403.128C403.735 194.145 404.255 194.721 404.367 195.511L411.846 247.153C411.994 248.19 411.4 249.145 410.608 249.145Z" stroke="#66B0F0" stroke-width="6" stroke-miterlimit="10"/>
<path d="M376.964 250.346H337.711C336.795 250.346 336.052 249.359 336.052 248.141V237.46C336.052 236.242 336.795 235.255 337.711 235.255H376.964C377.88 235.255 378.623 236.242 378.623 237.46V248.141C378.623 249.359 377.88 250.346 376.964 250.346Z" fill="#FE5244"/>
<path d="M229.97 67.2768V101.31C229.97 107.975 225.896 113.39 220.881 113.39H192.487C197.502 113.39 201.576 107.992 201.576 101.31V67.2768H229.97Z" fill="white" stroke="#FFCF2D" stroke-width="5" stroke-miterlimit="10"/>
<path d="M216.856 63.9854H214.566V71.243H216.856V63.9854Z" fill="#FE5244"/>
<path d="M221.71 80.2121C221.388 80.2121 221.066 80.0476 220.806 79.7349L219.853 78.6158C219.556 78.2702 219.159 78.2702 218.862 78.6158L217.958 79.6855C217.426 80.3109 216.683 80.3109 216.138 79.6855L215.308 78.7145C215.011 78.3689 214.615 78.3689 214.318 78.7145L213.55 79.6197C213.018 80.245 212.275 80.245 211.73 79.6197L211.098 78.8791C210.801 78.5335 210.405 78.5335 210.108 78.8791L209.427 79.6855C208.894 80.3109 208.151 80.3109 207.606 79.6855L206.975 78.9449C206.678 78.5993 206.282 78.5993 205.984 78.9449C205.861 79.093 205.662 79.0766 205.551 78.912C205.44 78.7474 205.452 78.4841 205.576 78.336C206.108 77.7106 206.851 77.7106 207.396 78.336L208.027 79.0766C208.325 79.4222 208.721 79.4222 209.018 79.0766L209.699 78.2702C210.232 77.6448 210.975 77.6448 211.519 78.2702L212.151 79.0108C212.448 79.3564 212.844 79.3564 213.142 79.0108L213.909 78.1056C214.442 77.4802 215.185 77.4802 215.73 78.1056L216.559 79.0766C216.856 79.4222 217.253 79.4222 217.55 79.0766L218.454 78.0069C218.986 77.3815 219.729 77.3815 220.274 78.0069L221.227 79.126C221.525 79.4716 221.921 79.4716 222.218 79.126L223.209 77.9575C223.741 77.3321 224.484 77.3321 225.029 77.9575C225.153 78.1056 225.165 78.3689 225.054 78.5335C224.942 78.6981 224.744 78.7145 224.62 78.5664C224.323 78.2208 223.927 78.2208 223.63 78.5664L222.639 79.7349C222.342 80.0476 222.032 80.2121 221.71 80.2121Z" fill="#FFCF2D"/>
<path d="M221.71 86.976C221.388 86.976 221.066 86.8114 220.806 86.4987L219.853 85.3796C219.556 85.034 219.159 85.034 218.862 85.3796L217.958 86.4493C217.426 87.0747 216.683 87.0747 216.138 86.4493L215.308 85.4784C215.011 85.1328 214.615 85.1328 214.318 85.4784L213.55 86.3835C213.018 87.0089 212.275 87.0089 211.73 86.3835L211.098 85.6429C210.801 85.2973 210.405 85.2973 210.108 85.6429L209.427 86.4493C208.894 87.0747 208.151 87.0747 207.606 86.4493L206.975 85.7088C206.678 85.3632 206.282 85.3632 205.984 85.7088C205.861 85.8569 205.662 85.8404 205.551 85.6759C205.44 85.5113 205.452 85.248 205.576 85.0999C206.108 84.4745 206.851 84.4745 207.396 85.0999L208.027 85.8404C208.325 86.186 208.721 86.186 209.018 85.8404L209.699 85.034C210.232 84.4087 210.975 84.4087 211.519 85.034L212.151 85.7746C212.448 86.1202 212.844 86.1202 213.142 85.7746L213.909 84.8695C214.442 84.2441 215.185 84.2441 215.73 84.8695L216.559 85.8404C216.856 86.186 217.253 86.186 217.55 85.8404L218.454 84.7707C218.986 84.1453 219.729 84.1453 220.274 84.7707L221.227 85.8898C221.525 86.2354 221.921 86.2354 222.218 85.8898L223.209 84.7213C223.741 84.096 224.484 84.096 225.029 84.7213C225.153 84.8695 225.165 85.1328 225.054 85.2973C224.942 85.4619 224.744 85.4784 224.62 85.3303C224.323 84.9847 223.927 84.9847 223.63 85.3303L222.639 86.4987C222.342 86.8278 222.032 86.976 221.71 86.976Z" fill="#FFCF2D"/>
<path d="M221.71 93.7399C221.388 93.7399 221.066 93.5753 220.806 93.2626L219.853 92.1436C219.556 91.798 219.159 91.798 218.862 92.1436L217.958 93.2133C217.426 93.8386 216.683 93.8386 216.138 93.2133L215.308 92.2423C215.011 91.8967 214.615 91.8967 214.318 92.2423L213.55 93.1474C213.018 93.7728 212.275 93.7728 211.73 93.1474L211.098 92.4069C210.801 92.0613 210.405 92.0613 210.108 92.4069L209.427 93.2133C208.894 93.8386 208.151 93.8386 207.606 93.2133L206.975 92.4727C206.678 92.1271 206.282 92.1271 205.984 92.4727C205.861 92.6208 205.662 92.6044 205.551 92.4398C205.44 92.2752 205.452 92.0119 205.576 91.8638C206.108 91.2384 206.851 91.2384 207.396 91.8638L208.027 92.6044C208.325 92.95 208.721 92.95 209.018 92.6044L209.699 91.7979C210.232 91.1726 210.975 91.1726 211.519 91.7979L212.151 92.5385C212.448 92.8841 212.844 92.8841 213.142 92.5385L213.909 91.6334C214.442 91.008 215.185 91.008 215.73 91.6334L216.559 92.6044C216.856 92.95 217.253 92.95 217.55 92.6044L218.454 91.5346C218.986 90.9093 219.729 90.9093 220.274 91.5346L221.227 92.6537C221.525 92.9993 221.921 92.9993 222.218 92.6537L223.209 91.4853C223.741 90.8599 224.484 90.8599 225.029 91.4853C225.153 91.6334 225.165 91.8967 225.054 92.0613C224.942 92.2258 224.744 92.2423 224.62 92.0942C224.323 91.7486 223.927 91.7486 223.63 92.0942L222.639 93.2626C222.342 93.5918 222.032 93.7399 221.71 93.7399Z" fill="#FFCF2D"/>
<path d="M221.71 100.52C221.388 100.52 221.066 100.356 220.806 100.043L219.853 98.9239C219.556 98.5783 219.159 98.5783 218.862 98.9239L217.958 99.9936C217.426 100.619 216.683 100.619 216.138 99.9936L215.308 99.0226C215.011 98.677 214.615 98.677 214.318 99.0226L213.55 99.9278C213.018 100.553 212.275 100.553 211.73 99.9278L211.098 99.1872C210.801 98.8416 210.405 98.8416 210.108 99.1872L209.427 99.9936C208.894 100.619 208.151 100.619 207.606 99.9936L206.975 99.253C206.678 98.9074 206.282 98.9074 205.984 99.253C205.861 99.4011 205.662 99.3847 205.551 99.2201C205.44 99.0555 205.452 98.7922 205.576 98.6441C206.108 98.0187 206.851 98.0187 207.396 98.6441L208.027 99.3847C208.325 99.7303 208.721 99.7303 209.018 99.3847L209.699 98.5783C210.232 97.9529 210.975 97.9529 211.519 98.5783L212.151 99.3188C212.448 99.6644 212.844 99.6644 213.142 99.3188L213.909 98.4137C214.442 97.7883 215.185 97.7883 215.73 98.4137L216.559 99.3847C216.856 99.7303 217.253 99.7303 217.55 99.3847L218.454 98.315C218.986 97.6896 219.729 97.6896 220.274 98.315L221.227 99.4341C221.525 99.7796 221.921 99.7796 222.218 99.4341L223.209 98.2656C223.741 97.6402 224.484 97.6402 225.029 98.2656C225.153 98.4137 225.165 98.677 225.054 98.8416C224.942 99.0062 224.744 99.0226 224.62 98.8745C224.323 98.5289 223.927 98.5289 223.63 98.8745L222.639 100.043C222.342 100.356 222.032 100.52 221.71 100.52Z" fill="#FFCF2D"/>
<path d="M259.205 67.2768H239.343V93.6741H259.205V67.2768Z" fill="#66B0F0"/>
<path d="M243.709 66.1478L242.269 63.7797L237.02 69.4177L238.46 71.7858L243.709 66.1478Z" fill="#FFCF2D"/>
<path d="M260.235 71.7827L261.675 69.4146L256.426 63.7766L254.986 66.1447L260.235 71.7827Z" fill="#FFCF2D"/>
<path d="M255.007 73.5305H242.959V74.5179H255.007V73.5305Z" fill="white"/>
<path d="M255.007 77.7928H242.959V78.7803H255.007V77.7928Z" fill="white"/>
<path d="M255.007 82.0717H242.959V83.0592H255.007V82.0717Z" fill="white"/>
<path d="M255.007 86.3342H242.959V87.3216H255.007V86.3342Z" fill="white"/>
<path d="M335.123 250.346H288.824L297.789 224.015L299.102 220.147H324.845L328.461 230.762L335.123 250.346Z" fill="white" stroke="#66B0F0" stroke-width="6" stroke-miterlimit="10"/>
<path d="M328.461 230.762L297.789 224.015L299.102 220.147H324.845L328.461 230.762Z" fill="#66B0F0"/>
<path d="M366.538 220.147H257.558C253.558 220.147 250.327 215.835 250.327 210.536V115.99C250.327 110.674 253.571 106.379 257.558 106.379H366.538C370.537 106.379 373.769 110.691 373.769 115.99V210.52C373.769 215.835 370.525 220.147 366.538 220.147Z" fill="white" stroke="#66B0F0" stroke-width="6" stroke-miterlimit="10"/>
<path d="M333.885 213.466H290.199C288.069 213.466 286.348 211.178 286.348 208.347V201.32C286.348 198.49 288.069 196.202 290.199 196.202H333.885C336.015 196.202 337.736 198.49 337.736 201.32V208.347C337.736 211.178 336.002 213.466 333.885 213.466Z" fill="#66B0F0"/>
<path d="M322.418 208.775H319.471C318.741 208.775 318.146 207.985 318.146 207.014V203.953C318.146 202.982 318.741 202.192 319.471 202.192H322.418C323.149 202.192 323.743 202.982 323.743 203.953V207.014C323.743 207.985 323.149 208.775 322.418 208.775Z" fill="white"/>
<path d="M326.17 208.265L325.081 207.344C324.783 207.097 324.598 206.652 324.598 206.175V204.793C324.598 204.315 324.783 203.871 325.081 203.624L326.17 202.703C326.43 202.489 326.765 202.736 326.765 203.131V207.821C326.777 208.232 326.43 208.479 326.17 208.265Z" fill="white"/>
<path d="M311.249 207.228H310.977C309.9 207.228 309.02 206.06 309.02 204.628V203.098C309.02 202.966 309.107 202.851 309.206 202.851H313.008C313.107 202.851 313.193 202.966 313.193 203.098V204.628C313.206 206.06 312.327 207.228 311.249 207.228ZM309.392 203.344V204.628C309.392 205.78 310.098 206.735 310.977 206.735H311.249C312.116 206.735 312.834 205.797 312.834 204.628V203.344H309.392Z" fill="white"/>
<path d="M311.113 210.075C311.014 210.075 310.927 209.96 310.927 209.828V207.969C310.927 207.837 311.014 207.722 311.113 207.722C311.212 207.722 311.299 207.837 311.299 207.969V209.828C311.299 209.96 311.212 210.075 311.113 210.075Z" fill="white"/>
<path d="M312.091 210.075H310.147C310.048 210.075 309.961 209.96 309.961 209.829C309.961 209.697 310.048 209.582 310.147 209.582H312.091C312.19 209.582 312.277 209.697 312.277 209.829C312.277 209.96 312.19 210.075 312.091 210.075Z" fill="white"/>
<path d="M311.2 206.076H311.026C310.407 206.076 309.912 205.418 309.912 204.595V201.6C309.912 200.777 310.407 200.119 311.026 200.119H311.2C311.819 200.119 312.314 200.777 312.314 201.6V204.595C312.314 205.418 311.819 206.076 311.2 206.076Z" fill="white"/>
<path d="M299.808 204.217L299.795 204.233C299.56 204.612 299.634 205.188 299.944 205.533L301.083 206.751C301.393 207.08 301.838 207.047 302.074 206.669L302.086 206.652C302.321 206.274 302.767 206.257 303.064 206.603L304.092 207.837C304.414 208.232 304.414 208.89 304.092 209.187C303.015 210.191 301.616 209.828 300.464 208.594L298.73 206.735C297.579 205.484 297.022 203.739 297.529 202.127C297.69 201.633 298.173 201.501 298.52 201.847L299.647 202.933C299.956 203.262 300.031 203.838 299.808 204.217Z" fill="white"/>
<path d="M302.829 205.171C302.73 205.171 302.656 205.072 302.643 204.941C302.581 203.756 301.814 202.851 300.922 202.933C300.823 202.933 300.736 202.834 300.724 202.702C300.712 202.571 300.798 202.456 300.897 202.439C301.999 202.34 302.94 203.46 303.015 204.908C303.027 205.039 302.953 205.155 302.829 205.171C302.841 205.171 302.841 205.171 302.829 205.171Z" fill="white"/>
<path d="M303.993 204.924C303.894 204.924 303.82 204.826 303.807 204.694C303.758 203.706 303.423 202.785 302.854 202.127C302.284 201.468 301.566 201.139 300.823 201.205C300.724 201.205 300.637 201.106 300.625 200.975C300.613 200.843 300.699 200.728 300.798 200.711C301.64 200.645 302.458 201.007 303.101 201.748C303.745 202.489 304.117 203.525 304.179 204.645C304.191 204.809 304.104 204.924 303.993 204.924C304.005 204.924 304.005 204.924 303.993 204.924Z" fill="white"/>
<path d="M345.871 115.282C346.582 115.282 347.159 114.516 347.159 113.571C347.159 112.625 346.582 111.859 345.871 111.859C345.16 111.859 344.583 112.625 344.583 113.571C344.583 114.516 345.16 115.282 345.871 115.282Z" stroke="#FFCF2D" stroke-width="5" stroke-miterlimit="10"/>
<path d="M351.134 115.282C351.845 115.282 352.422 114.516 352.422 113.571C352.422 112.625 351.845 111.859 351.134 111.859C350.422 111.859 349.846 112.625 349.846 113.571C349.846 114.516 350.422 115.282 351.134 115.282Z" stroke="#FFCF2D" stroke-width="5" stroke-miterlimit="10"/>
<path d="M356.409 115.282C357.12 115.282 357.697 114.516 357.697 113.571C357.697 112.625 357.12 111.859 356.409 111.859C355.697 111.859 355.121 112.625 355.121 113.571C355.121 114.516 355.697 115.282 356.409 115.282Z" stroke="#FFCF2D" stroke-width="5" stroke-miterlimit="10"/>
<path d="M307.46 191.989H268.653C267.464 191.989 266.511 190.705 266.511 189.142V161.527C266.511 159.947 267.477 158.68 268.653 158.68H307.46C308.649 158.68 309.602 159.963 309.602 161.527V189.142C309.602 190.705 308.649 191.989 307.46 191.989Z" stroke="#66B0F0" stroke-width="6" stroke-miterlimit="10"/>
<path d="M356.409 191.989H317.602C316.413 191.989 315.459 190.705 315.459 189.142V161.527C315.459 159.947 316.425 158.68 317.602 158.68H356.409C357.597 158.68 358.551 159.963 358.551 161.527V189.142C358.551 190.705 357.597 191.989 356.409 191.989Z" fill="#3FB1B5"/>
<path d="M349.078 191.907H323.719C326.282 187.71 330.195 185.011 334.578 185.011H338.219C342.602 185.028 346.515 187.71 349.078 191.907Z" fill="#FE5244"/>
<path d="M335.606 185.028C335.358 187.513 333.761 189.422 331.829 189.422C330.405 189.422 329.167 188.385 328.511 186.854C330.343 185.686 332.399 185.028 334.566 185.028H335.606Z" fill="white"/>
<path d="M343.097 186.18C342.54 188.072 341.166 189.405 339.544 189.405C337.612 189.405 336.015 187.496 335.767 185.011H338.231C339.94 185.028 341.574 185.423 343.097 186.18Z" fill="white"/>
<path d="M340.311 177.688V185.159C340.311 186.328 338.553 187.266 336.398 187.266C336.002 187.266 335.618 187.233 335.259 187.184C333.649 186.92 332.485 186.114 332.485 185.159V177.688H340.311Z" fill="#A0505A"/>
<path d="M339.791 179.218C339.791 182.46 337.661 186.394 335.259 187.167C333.649 186.904 332.485 186.097 332.485 185.143V177.671H339.667L339.791 179.218Z" fill="#73325A"/>
<path d="M342.317 176.733V176.914C342.317 178.181 341.537 179.218 340.584 179.218H338.924C338.169 181.374 336.522 182.855 334.615 182.855H334.293C332.163 182.855 330.442 180.568 330.442 177.737V172.454C332.906 172.668 336.039 169.805 336.039 169.805C337.067 175.088 340.002 175.022 341.364 174.676C341.921 175.055 342.317 175.845 342.317 176.733Z" fill="#A0505A"/>
<path d="M339.878 177.54C339.779 177.54 339.692 177.424 339.692 177.293C339.692 176.24 340.336 175.384 341.129 175.384C341.228 175.384 341.314 175.499 341.314 175.631C341.314 175.762 341.228 175.877 341.129 175.877C340.547 175.877 340.064 176.503 340.064 177.293C340.064 177.424 339.977 177.54 339.878 177.54Z" fill="#73325A"/>
<path d="M340.311 179.218H340.584C341.537 179.218 342.317 178.182 342.317 176.914V176.733C342.317 175.828 341.933 175.055 341.364 174.676C340.992 174.775 340.485 174.841 339.94 174.791C338.528 174.643 336.782 173.623 336.039 169.805C336.039 169.805 332.906 172.668 330.442 172.454C329.984 172.422 329.551 172.273 329.167 171.977C327.124 170.43 332.064 163.189 337.736 164.275C342.268 165.147 342.169 172.356 342.082 174.067C342.305 174.034 342.528 174.018 342.751 174.018C346.069 174.018 348.756 177.408 348.756 181.605C348.756 184.337 347.617 186.739 345.896 188.072C344.249 186.624 342.354 185.637 340.311 185.225V179.218Z" fill="#FFCF2D"/>
<path d="M332.944 177.721C332.919 177.721 332.894 177.721 332.882 177.704C332.783 177.655 332.733 177.507 332.77 177.392C332.77 177.375 333.142 176.042 332.523 174.61C331.99 173.376 330.814 173.59 330.764 173.606C330.665 173.623 330.566 173.541 330.554 173.392C330.541 173.261 330.603 173.129 330.715 173.113C330.777 173.096 332.188 172.833 332.857 174.363C333.563 175.993 333.142 177.507 333.129 177.556C333.08 177.655 333.018 177.721 332.944 177.721Z" fill="#73325A"/>
<path d="M337.166 174.594C337.129 174.594 337.092 174.577 337.055 174.544C335.977 173.442 334.541 173.573 334.529 173.573C334.43 173.59 334.343 173.475 334.33 173.343C334.318 173.211 334.405 173.096 334.504 173.08C334.566 173.08 336.089 172.932 337.278 174.149C337.364 174.232 337.377 174.38 337.315 174.495C337.265 174.561 337.216 174.594 337.166 174.594Z" fill="#73325A"/>
<path d="M332.3 178.28C332.3 178.28 332.597 180.88 334.615 178.346C334.615 178.346 333.204 178.593 332.3 178.28Z" fill="white"/>
<path d="M335.408 176.091C335.551 176.091 335.668 175.745 335.668 175.318C335.668 174.891 335.551 174.544 335.408 174.544C335.264 174.544 335.148 174.891 335.148 175.318C335.148 175.745 335.264 176.091 335.408 176.091Z" fill="#73325A"/>
<path d="M331.544 175.96C331.667 175.96 331.767 175.672 331.767 175.318C331.767 174.964 331.667 174.676 331.544 174.676C331.421 174.676 331.321 174.964 331.321 175.318C331.321 175.672 331.421 175.96 331.544 175.96Z" fill="#73325A"/>
<path d="M355.926 154.253H317.119C315.93 154.253 314.976 152.969 314.976 151.406V123.791C314.976 122.211 315.942 120.944 317.119 120.944H355.926C357.115 120.944 358.068 122.227 358.068 123.791V151.406C358.068 152.969 357.102 154.253 355.926 154.253Z" fill="#66B0F0"/>
<path d="M348.026 154.253H324.338C326.727 150.023 330.38 147.324 334.479 147.324H337.884C341.983 147.324 345.636 150.023 348.026 154.253Z" fill="#FFCF2D"/>
<path d="M334.925 152.837H335.457C337.773 152.837 339.655 150.336 339.655 147.258V143.292C339.655 143.276 339.643 143.259 339.63 143.259H331.842C331.829 143.259 331.817 143.276 331.817 143.292V148.74C331.829 151.011 333.216 152.837 334.925 152.837Z" fill="white"/>
<path d="M331.829 143.259V148.608C331.829 148.674 331.829 148.756 331.829 148.822C331.941 151.883 337.674 150.682 339.395 143.259H331.829Z" fill="#FFCF2D"/>
<path d="M341.921 140.873C341.921 141.531 341.723 142.124 341.389 142.568C341.067 142.996 340.621 143.259 340.113 143.259H338.417C337.81 145.399 336.25 146.913 334.43 146.913H333.105C331.26 146.913 329.774 144.922 329.774 142.486V135.574C331.681 135.788 333.29 133.747 333.352 133.665C333.328 133.78 332.362 137.401 334.553 137.598C336.733 137.796 337.451 135.706 337.476 135.623C337.476 135.706 337.488 138.503 339.209 138.651H340.113C341.116 138.651 341.921 139.557 341.921 140.873Z" fill="white"/>
<path d="M339.37 138.651H339.333C339.296 138.651 339.259 138.651 339.222 138.651C337.5 138.503 337.488 135.722 337.488 135.623C337.463 135.706 336.733 137.796 334.566 137.598C332.386 137.401 333.34 133.78 333.365 133.665C333.303 133.731 331.693 135.788 329.786 135.574C329.365 135.525 328.944 135.376 328.511 135.064C325.725 133.056 327.52 128.925 330.257 128.876C332.436 128.843 333.365 130.423 333.365 130.423C333.365 130.423 333.835 127.181 336.51 127.74C339.184 128.3 338.702 131.443 338.702 131.443C338.702 131.443 340.943 130.061 342.181 132.612C343.642 135.607 341.45 138.651 339.37 138.651Z" fill="#FE5244"/>
<path d="M332.052 141.663C332.04 141.663 332.027 141.663 332.003 141.663C331.903 141.63 331.842 141.498 331.866 141.367C331.866 141.35 332.164 139.721 331.631 138.388C331.049 136.973 330.046 137.203 330.009 137.203C329.91 137.22 329.811 137.137 329.798 137.006C329.774 136.874 329.848 136.742 329.947 136.726C329.959 136.726 331.26 136.413 331.965 138.158C332.572 139.655 332.25 141.416 332.238 141.482C332.201 141.581 332.126 141.663 332.052 141.663Z" fill="#FFCF2D"/>
<path d="M332.708 143.572C332.448 143.572 332.213 143.523 332.04 143.457C331.941 143.424 331.879 143.292 331.903 143.161C331.928 143.029 332.027 142.947 332.126 142.98C332.188 142.996 333.6 143.49 334.12 142.042C334.169 141.926 334.268 141.861 334.367 141.926C334.467 141.992 334.504 142.124 334.454 142.255C334.095 143.292 333.34 143.572 332.708 143.572Z" fill="#FFCF2D"/>
<path d="M334.504 139.688C334.647 139.688 334.764 139.342 334.764 138.915C334.764 138.488 334.647 138.141 334.504 138.141C334.36 138.141 334.244 138.488 334.244 138.915C334.244 139.342 334.36 139.688 334.504 139.688Z" fill="#FFCF2D"/>
<path d="M330.653 139.557C330.776 139.557 330.876 139.269 330.876 138.915C330.876 138.56 330.776 138.273 330.653 138.273C330.53 138.273 330.43 138.56 330.43 138.915C330.43 139.269 330.53 139.557 330.653 139.557Z" fill="#FFCF2D"/>
<path d="M339.184 141.778C339.085 141.778 338.999 141.663 338.999 141.531C338.999 140.478 339.643 139.622 340.435 139.622C340.534 139.622 340.621 139.738 340.621 139.869C340.621 140.001 340.534 140.116 340.435 140.116C339.853 140.116 339.37 140.742 339.37 141.531C339.37 141.663 339.284 141.778 339.184 141.778Z" fill="#FFCF2D"/>
<path d="M306.965 154.253H268.158C266.969 154.253 266.015 152.969 266.015 151.406V123.791C266.015 122.211 266.981 120.944 268.158 120.944H306.965C308.154 120.944 309.107 122.227 309.107 123.791V151.406C309.119 152.969 308.154 154.253 306.965 154.253Z" fill="#FFCF2D"/>
<path d="M297.591 154.253H273.519C275.946 149.431 279.661 146.353 283.822 146.353H287.289C291.449 146.353 295.152 149.431 297.591 154.253Z" fill="white"/>
<path d="M297.591 154.253H273.519C273.594 154.105 273.668 153.973 273.742 153.825C273.755 153.792 273.767 153.759 273.792 153.743H297.331C297.343 153.776 297.356 153.792 297.381 153.825C297.443 153.957 297.517 154.105 297.591 154.253Z" fill="#FEB040"/>
<path d="M296.576 152.459H274.535C274.646 152.278 274.758 152.113 274.869 151.949H296.241C296.353 152.113 296.464 152.278 296.576 152.459Z" fill="#FEB040"/>
<path d="M295.214 150.583H275.897C276.045 150.402 276.194 150.237 276.343 150.073H294.768C294.916 150.237 295.065 150.402 295.214 150.583Z" fill="#FEB040"/>
<path d="M293.133 148.526H277.965C278.188 148.345 278.423 148.18 278.658 148.016H292.428C292.675 148.18 292.898 148.345 293.133 148.526Z" fill="#FEB040"/>
<path d="M289.394 140.198V147.555C289.394 148.312 287.635 148.921 285.481 148.921C283.376 148.921 281.655 148.345 281.568 147.604C281.568 147.588 281.568 147.571 281.568 147.555V140.198H289.394Z" fill="#E57281"/>
<path d="M289.345 140.198V140.363C289.345 143.984 285.965 148.131 283.525 148.608C283.141 148.69 281.953 148.378 281.581 147.588C281.581 147.571 281.581 147.555 281.581 147.538V140.182H289.345V140.198Z" fill="#9A3B82"/>
<path d="M291.524 137.878V138.043C291.524 139.31 290.744 140.347 289.79 140.347H288.292C287.809 142.651 286.224 144.329 284.342 144.329H282.744C280.974 144.329 279.525 142.42 279.525 140.05V130.686C282.497 131.789 287.809 130.752 287.809 130.752C287.809 130.752 287.326 133.056 288.242 135.557H289.802C290.744 135.574 291.524 136.611 291.524 137.878Z" fill="#E57281"/>
<path d="M289.728 135.278H288.316C287.115 132.579 287.796 130.785 287.796 130.785C287.796 130.785 282.484 131.805 279.512 130.719C278.163 130.225 277.296 129.287 277.618 127.625C278.646 122.293 289.716 127.971 290.483 129.896C291.264 131.822 289.728 135.278 289.728 135.278Z" fill="white" stroke="#FEB040" stroke-width="4" stroke-miterlimit="10"/>
<path d="M284.23 140.33C284.193 140.379 284.156 140.396 284.107 140.396C284.057 140.396 284.007 140.363 283.97 140.314L283.797 140.067C283.264 140.692 282.757 141.005 282.286 141.005C282.237 141.005 282.187 141.005 282.15 140.988C281.63 140.923 281.37 140.462 281.358 140.445C281.296 140.33 281.308 140.182 281.395 140.1C281.481 140.017 281.593 140.034 281.655 140.149C281.667 140.166 281.84 140.462 282.2 140.511C282.596 140.561 283.054 140.281 283.549 139.705L283.45 139.557C283.376 139.458 283.388 139.293 283.463 139.211C283.537 139.112 283.661 139.129 283.723 139.227L284.243 139.984C284.317 140.083 284.305 140.231 284.23 140.33Z" fill="#9A3B82"/>
<path d="M286.112 135.426C286.063 135.426 286.013 135.409 285.976 135.36C284.887 133.945 283.5 134.224 283.487 134.224C283.388 134.241 283.289 134.159 283.277 134.027C283.264 133.895 283.326 133.764 283.425 133.747C283.487 133.731 285.01 133.402 286.236 135.014C286.311 135.113 286.311 135.261 286.236 135.36C286.211 135.409 286.162 135.426 286.112 135.426Z" fill="#9A3B82"/>
<path d="M281.89 138.882C281.878 138.882 281.853 138.882 281.84 138.865C281.741 138.832 281.692 138.684 281.717 138.553C281.717 138.536 282.1 136.858 281.481 135.426C280.949 134.192 279.748 134.57 279.735 134.587C279.636 134.619 279.537 134.537 279.512 134.406C279.488 134.274 279.55 134.142 279.649 134.109C280.156 133.945 281.271 133.945 281.803 135.195C282.509 136.825 282.1 138.635 282.076 138.717C282.039 138.816 281.977 138.882 281.89 138.882Z" fill="#9A3B82"/>
<path d="M280.503 136.956C280.626 136.956 280.726 136.669 280.726 136.315C280.726 135.96 280.626 135.673 280.503 135.673C280.38 135.673 280.28 135.96 280.28 136.315C280.28 136.669 280.38 136.956 280.503 136.956Z" fill="#9A3B82"/>
<path d="M284.354 137.088C284.498 137.088 284.614 136.742 284.614 136.315C284.614 135.887 284.498 135.541 284.354 135.541C284.21 135.541 284.094 135.887 284.094 136.315C284.094 136.742 284.21 137.088 284.354 137.088Z" fill="#9A3B82"/>
<path d="M288.824 138.717C288.725 138.717 288.638 138.602 288.638 138.47C288.638 137.401 289.295 136.528 290.1 136.528C290.199 136.528 290.285 136.644 290.285 136.775C290.285 136.907 290.199 137.022 290.1 137.022C289.493 137.022 289.01 137.664 289.01 138.47C289.01 138.602 288.936 138.717 288.824 138.717Z" fill="#9A3B82"/>
<path d="M352.57 449.181C352.236 449.05 352.05 448.984 352.05 448.984L348.001 466.609L332.758 461.294C332.634 461.146 332.572 461.063 332.572 461.063C332.572 461.063 270.844 396.765 267.6 365.908C264.368 335.051 290.223 305.774 290.223 305.774C290.223 305.774 345.363 444.293 352.186 448.819C352.322 448.918 352.458 449.033 352.57 449.181Z" fill="#A0505A"/>
<path d="M303.275 338.178C301.343 351.92 294.557 379.749 287.536 406.672C277.135 391.779 268.74 376.753 267.6 365.892C265.545 346.341 275.191 327.398 282.521 316.175C285.209 313.311 288.106 310.678 291.239 308.325C293.158 313.114 297.604 324.206 303.275 338.178Z" fill="#73325A"/>
<path d="M387.217 461.047L364.544 480.384L357.969 479.067L351.914 484.169L353.87 489.501L343.902 498.01C330.69 482.03 332.56 461.244 332.56 461.244L347.988 466.626L352.038 449C352.038 449 365.894 454.382 376.122 453.921C386.375 453.46 387.217 461.047 387.217 461.047Z" fill="white" stroke="#FE5244" stroke-width="6" stroke-miterlimit="10"/>
<path d="M361.448 451.354C361.448 451.354 360.495 437.958 358.105 438.797C355.715 439.653 358.712 453.016 361.399 451.551C364.086 450.086 366.773 440.591 366.773 440.591" stroke="#FE5244" stroke-width="6" stroke-miterlimit="10"/>
<path d="M334.925 480.368L350.118 480.68L357.659 474.69L364.816 476.22L386.276 458.414" stroke="#FE5244" stroke-width="6" stroke-miterlimit="10"/>
<path d="M358.303 450.597L356.892 459.335" stroke="#FE5244" stroke-width="6" stroke-miterlimit="10"/>
<path d="M361.374 451.584L359.962 460.323" stroke="#FE5244" stroke-width="6" stroke-miterlimit="10"/>
<path d="M364.581 452.292L363.17 461.03" stroke="#FE5244" stroke-width="6" stroke-miterlimit="10"/>
<path d="M284.986 299.043C284.986 299.043 294.062 304.671 294.062 325.308C294.062 345.254 259.415 467.399 259.415 467.399L248.754 479.413L237.932 463.664C243.219 456.982 228.038 336.187 284.986 299.043Z" fill="#A0505A"/>
<path d="M284.02 502.815L257.075 502.848L252.073 497.022L244.903 496.973L244.383 502.864L233.821 502.881C228.075 479.117 237.981 463.647 237.981 463.647L248.729 479.38L259.465 467.383C259.465 467.383 268.777 481.898 277.568 488.843C286.385 495.804 284.02 502.815 284.02 502.815Z" fill="white" stroke="#FE5244" stroke-width="6" stroke-miterlimit="10"/>
<path d="M265.607 475.842C265.607 475.842 276.182 466.774 273.173 463.302C270.164 459.829 264.109 474.904 265.755 476.105C267.402 477.306 278.807 472.748 278.807 472.748" stroke="#FE5244" stroke-width="6" stroke-miterlimit="10"/>
<path d="M232.397 481.865L245.039 492.464H253.819L259.378 498.668H284.23" stroke="#FE5244" stroke-width="6" stroke-miterlimit="10"/>
<path d="M263.254 472.419L258.499 478.738" stroke="#FE5244" stroke-width="6" stroke-miterlimit="10"/>
<path d="M265.433 475.463L260.678 481.783" stroke="#FE5244" stroke-width="6" stroke-miterlimit="10"/>
<path d="M267.836 478.36L263.081 484.679" stroke="#FE5244" stroke-width="6" stroke-miterlimit="10"/>
<path d="M284.986 299.043C263.576 312.998 252.357 338.803 246.426 365.908H181.454C164.825 365.908 152.429 345.518 155.934 323.91L160.701 294.484H273.668C277.853 294.484 281.741 296.163 284.986 299.043Z" fill="#FE5244"/>
<path d="M236.743 327.25L260.134 327.184L256.667 334.738L236.743 327.25Z" fill="#A0505A"/>
<path d="M285.109 298.878C274.46 305.823 266.337 315.697 260.121 327.201H200.846C190.159 327.201 182.185 314.15 184.364 300.244L185.268 294.484" stroke="white" stroke-width="6" stroke-miterlimit="10" stroke-linecap="round"/>
<path d="M246.513 365.892C248.878 355.079 252.073 344.465 256.419 334.738L236.743 327.234" stroke="white" stroke-width="6" stroke-miterlimit="10" stroke-linecap="round"/>
<path d="M145.52 215.44L157.42 277.484H135.218C122.29 277.484 113.969 259.233 119.962 244.01L137.013 200.678C141.842 188.418 151.389 180.732 161.803 180.732H165.827C152.157 180.716 142.139 197.831 145.52 215.44Z" fill="#3FB1B5"/>
<path d="M282.546 199.345C289.542 199.345 295.362 198.111 296.774 196.383L275.067 258.92C271.142 270.243 262.61 277.484 253.237 277.484C250.488 277.484 247.788 276.858 245.237 275.657C242.687 274.456 240.284 272.695 238.142 270.391L224.459 255.711C224.459 255.711 223.097 266.359 213.377 269.074V294.451H160.689L145.52 215.424C142.139 197.815 152.157 180.683 165.827 180.683H202.715C205.972 180.683 209.179 181.226 212.275 182.279C220.744 185.143 228.347 191.759 233.721 201.238L251.751 233.033L267.947 195.412C267.947 195.445 267.935 195.494 267.935 195.527C267.947 197.716 274.498 199.345 282.546 199.345Z" fill="#3FB1B5"/>
<path d="M145.396 215.44L157.048 277.978" stroke="white" stroke-width="6" stroke-miterlimit="10" stroke-linecap="round"/>
<path d="M224.583 256.55L214.231 241.904" stroke="white" stroke-width="6" stroke-miterlimit="10" stroke-linecap="round"/>
<path d="M297.096 195.461L296.774 196.383C295.362 198.128 289.542 199.345 282.546 199.345C274.498 199.345 267.947 197.716 267.947 195.56C267.947 195.527 267.947 195.478 267.96 195.445C268.182 193.338 274.646 191.528 282.559 191.528C290.459 191.528 296.873 193.338 297.096 195.461C297.096 195.445 297.096 195.445 297.096 195.461Z" fill="#FE5244"/>
<path d="M303.585 163.864C303.585 164.802 303.412 165.723 303.09 166.53C302.768 167.336 302.297 168.044 301.715 168.587L301.431 168.85L299.214 184.567C298.855 187.118 297.716 189.372 296.069 190.771L293.035 193.339L290.633 195.379L289.518 198.917C287.451 199.197 285.085 199.362 282.559 199.362C280.009 199.362 277.606 199.197 275.514 198.901V174.528C275.514 173.475 275.687 172.438 276.021 171.483L280.058 159.93C280.058 159.93 284.466 161.379 282.436 168.57C280.591 175.104 284.801 173.425 287.166 172.257C289.283 171.204 298.533 164.95 302.149 162.662C302.817 162.234 303.585 162.893 303.585 163.864Z" fill="#A0505A"/>
<path d="M299.721 178.593C299.362 181.144 298.223 183.382 296.576 184.781L291.14 189.389" stroke="#73325A" stroke-width="5" stroke-miterlimit="10" stroke-linecap="round"/>
<path d="M300.613 171.928C300.253 174.479 299.114 176.717 297.467 178.116L292.031 182.724" stroke="#73325A" stroke-width="5" stroke-miterlimit="10" stroke-linecap="round"/>
<path d="M301.034 169.031L292.291 176.404" stroke="#73325A" stroke-width="5" stroke-miterlimit="10" stroke-linecap="round"/>
<path d="M293.505 192.927L293.022 193.339L290.62 195.379L289.505 198.917C287.437 199.197 285.072 199.362 282.546 199.362C279.995 199.362 277.593 199.197 275.501 198.901V192.055C277.593 191.726 279.995 191.545 282.546 191.545C286.917 191.528 290.83 192.071 293.505 192.927Z" fill="#73325A"/>
<path d="M211.123 181.901C209.328 185.11 202.641 192.664 180.129 192.664C151.166 192.664 169.703 180.749 169.703 180.749L181.987 153.479L195.162 164.226V172.866C195.162 177.227 197.824 180.749 201.093 180.749H201.948C205.018 180.732 208.188 180.913 211.123 181.901Z" fill="#A0505A"/>
<path d="M195.149 164.209V166.415L169.691 180.732L181.974 153.463L195.149 164.209Z" fill="#73325A"/>
<path d="M195.843 165.279H198.641C201.217 165.279 203.31 162.498 203.31 159.075V138.355H186.605V153.002C186.605 159.782 190.741 165.279 195.843 165.279Z" fill="#A0505A"/>
<path d="M202.951 157.873C201.155 157.873 200.437 156.228 200.437 156.228" stroke="#73325A" stroke-width="5" stroke-miterlimit="10" stroke-linecap="round"/>
<path d="M201.328 151.241C201.657 151.241 201.923 150.556 201.923 149.711C201.923 148.865 201.657 148.18 201.328 148.18C201 148.18 200.734 148.865 200.734 149.711C200.734 150.556 201 151.241 201.328 151.241Z" fill="#73325A"/>
<path d="M189.788 140.511C189.788 140.511 203.57 151.57 208.052 141.943C211.99 133.5 194.543 129.156 188.451 129.123C181.826 129.09 173.047 132.99 173.195 145.942C173.319 156.606 173.653 172.208 168.898 169.492C151.984 159.848 136.951 169.92 136.902 189.109C136.852 208.298 153.606 210.092 154.027 205.138C154.46 200.201 143.625 201.337 145.086 214.157C146.535 226.977 152.999 243.006 167.759 243.006C185.59 243.023 196.945 211.82 185.912 208.644C177.455 206.208 194.53 227.899 199.595 205.352C205.043 181.078 185.355 173.129 184.872 158.466C184.389 143.803 189.788 140.511 189.788 140.511Z" fill="#FFCF2D" stroke="white" stroke-width="5" stroke-miterlimit="10"/>
<path d="M188.822 149.316H198.679" stroke="#FE5244" stroke-width="6" stroke-miterlimit="10"/>
<path d="M201.712 154.582C203.258 154.582 204.511 152.445 204.511 149.809C204.511 147.174 203.258 145.037 201.712 145.037C200.167 145.037 198.914 147.174 198.914 149.809C198.914 152.445 200.167 154.582 201.712 154.582Z" stroke="#FE5244" stroke-width="6" stroke-miterlimit="10"/>
<path d="M183.597 143.44V129.584C183.597 127.51 184.86 125.815 186.432 125.815H189.528C191.088 125.815 192.363 127.494 192.363 129.584" stroke="#66B0F0" stroke-width="6" stroke-miterlimit="10"/>
<path d="M186.581 158.696H180.625C179.102 158.696 177.863 157.051 177.863 155.026V147.11C177.863 145.086 179.102 143.44 180.625 143.44H186.581C188.104 143.44 189.342 145.086 189.342 147.11V155.026C189.33 157.051 188.104 158.696 186.581 158.696Z" fill="white" stroke="#66B0F0" stroke-width="6" stroke-miterlimit="10"/>
<path d="M185.033 156.08H182.123C180.872 156.08 179.845 154.73 179.845 153.051V149.184C179.845 147.522 180.86 146.156 182.123 146.156H185.033C186.284 146.156 187.311 147.505 187.311 149.184V153.051C187.311 154.73 186.296 156.08 185.033 156.08Z" fill="white" stroke="#66B0F0" stroke-width="6" stroke-miterlimit="10"/>
<path d="M186.185 146.551L181.009 155.701" stroke="#66B0F0" stroke-width="6" stroke-miterlimit="10"/>
<path d="M184.476 146.238L179.993 154.138" stroke="#66B0F0" stroke-width="6" stroke-miterlimit="10"/>
<path d="M187.188 148.18L182.705 156.08" stroke="#66B0F0" stroke-width="6" stroke-miterlimit="10"/>
<path d="M187.311 151.126L184.5 156.08" stroke="#66B0F0" stroke-width="6" stroke-miterlimit="10"/>
<path d="M182.655 146.238L179.857 151.159" stroke="#66B0F0" stroke-width="6" stroke-miterlimit="10"/>
<path d="M179.188 375.272V384.34C179.188 388.718 176.514 392.272 173.22 392.272H157.915" stroke="#66B0F0" stroke-width="6" stroke-miterlimit="10"/>
<path d="M184.897 375.371V458.562" stroke="#66B0F0" stroke-width="6" stroke-miterlimit="10"/>
<path d="M157.184 485.239C157.184 470.51 168.193 458.562 181.764 458.562H187.93C201.502 458.562 212.51 470.51 212.51 485.239" stroke="#66B0F0" stroke-width="6" stroke-miterlimit="10"/>
<path d="M244.445 376.638H154.547C150.04 376.638 146.399 371.783 146.399 365.809H246.575L244.445 376.638Z" fill="#FFCF2D"/>
<path d="M156.64 502.881C160.305 502.881 163.277 498.932 163.277 494.06C163.277 489.188 160.305 485.239 156.64 485.239C152.974 485.239 150.002 489.188 150.002 494.06C150.002 498.932 152.974 502.881 156.64 502.881Z" fill="#FFCF2D"/>
<path d="M153.259 394.527H166.583C167.672 394.527 168.552 393.359 168.552 391.91V391.713C168.552 390.265 167.672 389.096 166.583 389.096H153.259C152.169 389.096 151.29 390.265 151.29 391.713V391.91C151.29 393.359 152.169 394.527 153.259 394.527Z" fill="#FFCF2D"/>
<path d="M146.399 366.139H210.182L188.847 286.683C187.361 281.17 183.436 277.484 179.027 277.484H132.134C127.478 277.484 124.234 283.606 125.794 289.432L146.399 366.139Z" stroke="#FFCF2D" stroke-width="6" stroke-miterlimit="10"/>
<path d="M149.557 366.138H205.006L184.389 289.317C182.953 283.984 179.164 280.43 174.904 280.43H127.429" stroke="#FFCF2D" stroke-width="6" stroke-miterlimit="10"/>
<path d="M212.399 502.881C216.064 502.881 219.036 498.932 219.036 494.06C219.036 489.188 216.064 485.239 212.399 485.239C208.733 485.239 205.762 489.188 205.762 494.06C205.762 498.932 208.733 502.881 212.399 502.881Z" fill="#FFCF2D"/>
</svg>
