<svg width="177" height="184" viewBox="0 0 177 184" fill="none" xmlns="http://www.w3.org/2000/svg">
<g clip-path="url(#clip0)">
<path d="M52.5542 119.603C51.309 115.941 47.9858 113.487 44.25 113.47C40.5131 113.486 37.1884 115.94 35.9428 119.603C35.2178 121.578 35.2178 123.761 35.9428 125.736C37.5435 130.505 42.5596 133.022 47.1469 131.358C49.6795 130.439 51.6704 128.369 52.5542 125.736C53.2788 123.761 53.2788 121.578 52.5542 119.603ZM44.25 125.736C42.6209 125.736 41.3 124.363 41.3 122.67C41.3 120.976 42.6209 119.603 44.25 119.603C45.8791 119.603 47.2 120.976 47.2 122.67C47.2 124.363 45.8791 125.736 44.25 125.736Z" fill="white"/>
<path d="M35.4 52.1367H11.8V82.8034H64.9V52.1367H35.4ZM35.4 76.6701H17.7V58.2701H35.4V76.6701ZM59 76.6701H41.3V58.2701H59V76.6701Z" fill="white"/>
<path d="M176.321 77.424L163.539 45.5307C162.17 42.0972 158.943 39.862 155.368 39.8696H8.85C3.96222 39.8696 0 43.9886 0 49.0696V116.536C0 121.617 3.96222 125.736 8.85 125.736H23.836C25.4552 137.456 35.9074 145.593 47.1819 143.91C56.2436 142.557 63.3627 135.156 64.664 125.736H112.336C113.955 137.456 124.407 145.593 135.682 143.91C144.744 142.557 151.863 135.156 153.164 125.736H168.15C173.038 125.736 177 121.617 177 116.536V80.963C177.003 79.7482 176.772 78.5449 176.321 77.424ZM162.25 58.2696L169.625 76.6696H141.6V58.2696H162.25ZM58.705 125.736C57.084 134.035 49.2982 139.397 41.3147 137.712C33.3313 136.027 28.174 127.933 29.795 119.634C31.416 111.334 39.2018 105.973 47.1852 107.658C54.0543 109.108 58.993 115.383 59 122.67C59.0007 123.699 58.9019 124.727 58.705 125.736ZM70.8 119.603H64.664C63.0448 107.883 52.5926 99.7463 41.3181 101.43C32.2564 102.782 25.1373 110.183 23.836 119.603H8.85C7.22086 119.603 5.9 118.23 5.9 116.536V95.0696H70.8V119.603ZM100.3 88.9363V119.603H76.7V58.2696H100.3V88.9363ZM147.205 125.736C145.584 134.035 137.798 139.397 129.815 137.712C121.831 136.027 116.674 127.933 118.295 119.634C119.916 111.334 127.702 105.973 135.685 107.658C142.554 109.108 147.493 115.383 147.5 122.67C147.501 123.699 147.402 124.727 147.205 125.736ZM171.1 116.536C171.1 118.23 169.779 119.603 168.15 119.603H153.164C151.545 107.883 141.093 99.7463 129.818 101.43C120.756 102.782 113.637 110.183 112.336 119.603H106.2V95.0696H171.1V116.536ZM171.1 88.9363H106.2V52.1363H70.8V88.9363H5.9V49.0696C5.9 47.3761 7.22086 46.003 8.85 46.003H155.368C156.558 46.003 157.632 46.7466 158.09 47.889L159.793 52.1363H112.1V82.803H171.1V88.9363ZM135.7 58.2696V76.6696H118V58.2696H135.7Z" fill="white"/>
<path d="M141.054 119.603C139.809 115.941 136.486 113.487 132.75 113.47C129.013 113.486 125.688 115.94 124.443 119.603C123.718 121.578 123.718 123.761 124.443 125.736C126.044 130.505 131.06 133.022 135.647 131.358C138.179 130.439 140.17 128.369 141.054 125.736C141.779 123.761 141.779 121.578 141.054 119.603ZM132.75 125.736C131.121 125.736 129.8 124.363 129.8 122.67C129.8 120.976 131.121 119.603 132.75 119.603C134.379 119.603 135.7 120.976 135.7 122.67C135.7 124.363 134.379 125.736 132.75 125.736Z" fill="white"/>
</g>
<defs>
<clipPath id="clip0">
<rect width="177" height="184" fill="white"/>
</clipPath>
</defs>
</svg>
