<svg width="126" height="130" viewBox="0 0 126 130" fill="none" xmlns="http://www.w3.org/2000/svg">
<g clip-path="url(#clip0)">
<path d="M52.2849 58.543L60.6851 58.543V62.8773L52.2849 62.8773V58.543Z" fill="black"/>
<path d="M123.988 52.0644L109.722 49.9625C107.121 48.3138 104.421 46.8378 101.638 45.5427C92.4462 41.2471 82.4702 39.0306 72.3788 39.042H69.9006C57.9916 39.0509 46.2731 42.1341 35.8134 48.0105L28.6138 52.0627C20.1862 52.1606 11.921 54.4732 4.59921 58.7793C1.62366 60.54 -0.213623 63.8067 -0.21875 67.3448L-0.21875 80.2112C-0.21875 81.4085 0.721256 82.3784 1.88174 82.3784H8.93349C11.2271 89.1294 18.3908 92.6843 24.9341 90.3179C28.536 89.0156 31.3672 86.0938 32.6293 82.3784L88.7392 82.3784C91.0328 89.1294 98.1965 92.6843 104.74 90.3179C108.341 89.0156 111.173 86.0938 112.435 82.3784H113.189C113.456 82.3784 113.721 82.3263 113.97 82.2241L120.772 79.408C123.811 78.1666 125.801 75.1318 125.79 71.7612V54.2096C125.79 53.1322 125.022 52.2179 123.988 52.0644ZM29.0129 79.7783C28.084 84.4679 23.6463 87.493 19.1009 86.5346C14.5547 85.5762 11.6228 80.9977 12.5517 76.3071C13.4814 71.6175 17.9191 68.5924 22.4645 69.5508C26.3757 70.3752 29.1838 73.9257 29.1829 78.0449C29.1829 78.6268 29.1257 79.2078 29.0129 79.7783ZM66.9857 78.0449L33.3831 78.0449C33.3831 70.8645 27.7422 65.0437 20.7827 65.0437C13.8232 65.0437 8.18149 70.8645 8.18149 78.0449H3.98137L3.98137 67.3448C3.98393 65.3602 5.01452 63.5272 6.68431 62.5414C13.5378 58.5042 21.292 56.3794 29.1829 56.3767L66.9857 56.3767V78.0449ZM66.9857 52.0433L37.42 52.0433L37.825 51.8149C46.8038 46.7805 56.7772 43.9265 66.9857 43.4707V52.0433ZM71.1858 43.3755H72.3745C80.838 43.3658 89.2246 45.0234 97.0856 48.26L93.4187 52.0433L71.1858 52.0433V43.3755ZM108.819 79.7783C107.89 84.4679 103.452 87.493 98.9058 86.5346C94.3604 85.5762 91.4284 80.9977 92.3573 76.3071C93.2862 71.6175 97.7248 68.5924 102.27 69.5508C106.181 70.3752 108.989 73.9257 108.989 78.0449C108.989 78.6268 108.931 79.2078 108.819 79.7783ZM121.59 58.543H115.289V62.8774H121.59V71.7612C121.595 73.3579 120.652 74.795 119.212 75.3814L113.189 77.8774C113.189 77.6781 113.164 77.4806 113.151 77.2814C113.138 77.0821 113.134 76.8485 113.114 76.6316C113.092 76.4147 113.05 76.1978 113.017 75.9818C112.983 75.7649 112.958 75.548 112.916 75.3514C112.874 75.1539 112.813 74.9352 112.758 74.7289C112.703 74.5235 112.661 74.3154 112.598 74.1135C112.536 73.9125 112.46 73.7194 112.389 73.5219C112.317 73.3253 112.252 73.1216 112.179 72.9259C112.105 72.731 112.006 72.5538 111.918 72.3695C111.83 72.1853 111.744 71.9834 111.645 71.7973C111.546 71.6113 111.435 71.4526 111.34 71.2798C111.246 71.1061 111.131 70.9086 111.011 70.7314C110.891 70.5533 110.78 70.4131 110.664 70.2526C110.549 70.0922 110.418 69.9035 110.284 69.7368C110.15 69.5702 110.024 69.4397 109.894 69.3031C109.764 69.1673 109.618 68.983 109.474 68.8314C109.329 68.6797 109.186 68.5598 109.042 68.4258C108.896 68.2918 108.741 68.1331 108.581 67.992C108.422 67.8518 108.26 67.7434 108.101 67.6199C107.941 67.4965 107.781 67.3642 107.614 67.2487C107.445 67.1341 107.256 67.0327 107.076 66.9111C106.895 66.7894 106.748 66.6942 106.578 66.6016C106.408 66.5081 106.196 66.4103 106.003 66.315C105.81 66.2198 105.658 66.1352 105.48 66.0576C105.301 65.9791 105.059 65.8971 104.85 65.8195C104.64 65.7411 104.503 65.6802 104.324 65.622C104.085 65.5462 103.84 65.4916 103.596 65.429C103.436 65.3902 103.283 65.3381 103.121 65.3038C102.863 65.2491 102.598 65.2191 102.336 65.1794C102.18 65.1583 102.032 65.123 101.876 65.108C101.456 65.0648 101.036 65.041 100.595 65.041C93.6383 65.0481 88.0008 70.8645 87.994 78.0423L71.1867 78.0423V56.3759L94.2878 56.3759C94.8449 56.3759 95.379 56.1475 95.7721 55.7411L101.218 50.1221C103.504 51.2445 105.727 52.4991 107.876 53.8798C108.124 54.0394 108.401 54.1443 108.69 54.1875L121.59 56.0876V58.543Z" fill="black"/>
</g>
<defs>
<clipPath id="clip0">
<rect width="126" height="130" fill="white"/>
</clipPath>
</defs>
</svg>
