<svg width="94" height="87" viewBox="0 0 94 87" fill="none" xmlns="http://www.w3.org/2000/svg">
<g clip-path="url(#clip0)">
<path d="M93.8896 6.49473C93.686 3.03886 90.7164 0.290715 86.9825 0.102102C79.4482 -0.278863 64.7048 0.0917372 50.6071 6.84052C43.4203 10.2811 35.8195 16.1143 29.7537 22.8446C29.679 22.9275 29.6063 23.011 29.5321 23.0941L15.7663 24.0782C13.5004 24.2404 11.4821 25.3396 10.2289 27.0939L0.837356 40.241C-0.113108 41.5715 -0.264206 43.2366 0.432899 44.695C1.13019 46.1536 2.56295 47.1701 4.26579 47.4143L15.8636 49.0768C15.8226 49.2855 15.7815 49.494 15.7439 49.7026C15.3578 51.8403 16.123 54.038 17.7911 55.5818L33.9459 70.5337C35.3289 71.8137 37.1977 72.5194 39.1126 72.5194C39.507 72.5194 39.9035 72.4893 40.2983 72.4283C40.5237 72.3935 40.749 72.3554 40.9744 72.3175L42.7707 83.0518C43.0345 84.6279 44.1328 85.9541 45.7084 86.5993C46.364 86.8678 47.0578 87.0003 47.7485 87.0003C48.7184 87.0002 49.6816 86.7388 50.5209 86.2251L64.726 77.5328C66.6216 76.3727 67.8091 74.5048 67.9838 72.4078L69.0472 59.6672C69.137 59.5985 69.2273 59.5313 69.3169 59.4621C76.5889 53.848 82.8916 46.8133 86.6089 40.1615C93.901 27.1131 94.3007 13.4675 93.8896 6.49473ZM61.6884 73.2803L48.1004 81.5951L46.3497 71.1339C52.0925 69.5711 57.7735 67.0681 63.1856 63.7151L62.4929 72.0149C62.4498 72.5327 62.1564 72.994 61.6884 73.2803ZM37.8405 66.9291L21.6855 51.9772C21.2734 51.5956 21.0828 51.0595 21.1762 50.5431C21.6565 47.885 22.4028 45.3547 23.3267 42.971L47.5662 65.4055C44.473 66.4309 41.7024 67.0427 39.39 67.4005C38.8312 67.4865 38.2527 67.3106 37.8405 66.9291ZM16.1906 29.1608L25.158 28.5197C21.535 33.5288 18.8306 38.7867 17.1421 44.1018L5.83937 42.4816L14.8233 29.9054C15.1329 29.4721 15.6313 29.2007 16.1906 29.1608ZM65.7893 55.5473C61.3403 58.9819 57.0216 61.4662 53.041 63.2638L25.6449 37.9078C28.1892 33.0984 31.2943 29.0935 33.9832 26.11C39.5966 19.8815 46.5781 14.5084 53.1377 11.3683C66.0763 5.1741 79.7083 4.84054 86.6827 5.19194C87.6058 5.2385 88.34 5.91802 88.3903 6.77256C88.7705 13.2275 88.4094 25.8442 81.7168 37.8195C78.3242 43.8905 72.5188 50.3519 65.7893 55.5473Z" fill="black"/>
<path d="M64.3902 40.1429C67.9155 40.1426 71.4424 38.9005 74.1263 36.4164C76.7271 34.0094 78.1592 30.8091 78.1592 27.4052C78.1592 24.0014 76.727 20.8011 74.1263 18.3941C68.7577 13.4251 60.0223 13.4254 54.654 18.3941C52.0532 20.8011 50.621 24.0014 50.621 27.4052C50.621 30.8091 52.0534 34.0094 54.654 36.4164C57.3385 38.901 60.8635 40.1433 64.3902 40.1429ZM58.5482 21.9985C60.1587 20.5078 62.2743 19.7625 64.3898 19.7625C66.5055 19.7625 68.6211 20.5078 70.2316 21.9985C71.7919 23.4427 72.6512 25.3628 72.6512 27.4051C72.6512 29.4474 71.7919 31.3677 70.2316 32.8118C67.0106 35.7931 61.7692 35.7929 58.548 32.8118C56.9877 31.3677 56.1283 29.4475 56.1283 27.4052C56.1283 25.363 56.9879 23.4427 58.5482 21.9985Z" fill="black"/>
<path d="M2.80917 71.6967C3.51399 71.6967 4.21881 71.4479 4.75637 70.95L13.7475 62.6284C14.823 61.633 14.823 60.0193 13.7475 59.0239C12.6722 58.0285 10.9284 58.0285 9.85293 59.0239L0.861978 67.3455C-0.213514 68.3409 -0.213514 69.9546 0.861978 70.95C1.39954 71.4477 2.10436 71.6967 2.80917 71.6967Z" fill="black"/>
<path d="M21.9874 66.6499C20.9121 65.6545 19.1683 65.6545 18.0928 66.6499L0.806741 82.6489C-0.268751 83.6443 -0.268751 85.258 0.806741 86.2534C1.34449 86.7511 2.04912 86.9999 2.75394 86.9999C3.45875 86.9999 4.16357 86.7511 4.70113 86.2532L21.9872 70.2544C23.0629 69.259 23.0629 67.6453 21.9874 66.6499Z" fill="black"/>
<path d="M26.3327 74.2763L17.3415 82.5979C16.266 83.5933 16.266 85.2071 17.3415 86.2025C17.8793 86.7002 18.5841 86.9491 19.2887 86.9491C19.9934 86.9491 20.6984 86.7004 21.2359 86.2025L30.2271 77.8809C31.3026 76.8855 31.3026 75.2717 30.2271 74.2763C29.1518 73.2809 27.408 73.2809 26.3327 74.2763Z" fill="black"/>
</g>
<defs>
<clipPath id="clip0">
<rect width="94" height="87" fill="white"/>
</clipPath>
</defs>
</svg>
