<svg width="586" height="540" viewBox="0 0 586 540" fill="none" xmlns="http://www.w3.org/2000/svg">
<circle cx="270" cy="270" r="270" fill="#FEF9F3"/>
<path d="M422.734 407.074V459.808H373.445L383.048 378.829C382.741 382.026 388.888 388.02 397.3 394.031C400.319 396.189 403.686 398.331 407.281 400.361C413.081 403.654 418.424 405.891 422.734 407.074C422.724 407.074 422.734 407.074 422.734 407.074Z" fill="#9A3B82"/>
<path d="M422.734 391.217V405.332C418.424 404.149 413.091 401.927 407.271 398.634C393.556 390.882 382.999 381.307 383.595 377.007C383.605 376.943 383.615 376.879 383.625 376.831C384.548 372.627 396.694 375.536 410.598 383.385C415.067 385.91 419.099 388.516 422.486 391.026C422.565 391.09 422.644 391.154 422.734 391.217Z" fill="#FFCF2D"/>
<path d="M415.971 269.029C411.164 269.029 407.271 275.295 407.271 283.016V321.348C407.271 329.068 403.378 335.334 398.581 335.334H363.742C368.549 335.334 372.432 329.068 372.432 321.348V283.016C372.432 275.279 376.325 269.029 381.122 269.029H415.971Z" fill="white" stroke="#FFCF2D" stroke-width="5" stroke-miterlimit="10"/>
<path d="M400.736 288.867H378.55V322.003H400.736V288.867Z" fill="white" stroke="#FFCF2D" stroke-width="5" stroke-miterlimit="10"/>
<path d="M400.726 293.598H378.55" stroke="#FFCF2D" stroke-width="5" stroke-miterlimit="10"/>
<path d="M400.726 298.33H378.55" stroke="#FFCF2D" stroke-width="5" stroke-miterlimit="10"/>
<path d="M400.726 303.077H378.55" stroke="#FFCF2D" stroke-width="5" stroke-miterlimit="10"/>
<path d="M400.726 307.809H378.55" stroke="#FFCF2D" stroke-width="5" stroke-miterlimit="10"/>
<path d="M400.726 312.556H378.55" stroke="#FFCF2D" stroke-width="5" stroke-miterlimit="10"/>
<path d="M400.726 317.288H378.55" stroke="#FFCF2D" stroke-width="5" stroke-miterlimit="10"/>
<path d="M407.271 283.016C407.271 275.327 411.124 269.093 415.881 269.029C420.648 269.093 424.492 275.327 424.492 283.016H407.271Z" fill="#66B0F0" stroke="#FFCF2D" stroke-width="5" stroke-miterlimit="10"/>
<path d="M398.621 335.686C398.611 335.686 398.591 335.686 398.581 335.686H363.871C363.851 335.686 363.831 335.686 363.812 335.686C360.246 335.606 357.197 332.058 355.906 327.038H390.686C391.987 332.058 395.036 335.606 398.621 335.686Z" fill="#FFCF2D"/>
<path d="M380 285.062H375.987V279.883H377.874V282.76C377.874 282.824 377.894 282.872 377.914 282.888L377.924 282.904L380 285.062Z" fill="#FE5244"/>
<path d="M381.559 281.674V282.361C381.559 282.489 381.549 282.617 381.549 282.744C381.549 282.776 381.539 282.824 381.539 282.856C381.529 282.92 381.529 282.984 381.519 283.048C381.41 283.927 381.082 284.647 380.675 284.918C380.645 284.934 380.615 284.95 380.586 284.966C380.536 284.998 380.476 285.014 380.427 285.03C380.407 285.03 380.387 285.046 380.367 285.046L378.093 282.665C378.113 282.105 378.331 281.658 378.589 281.658H381.559V281.674Z" fill="#FE5244"/>
<path d="M403.715 279.883V285.062H399.703L401.769 282.904L401.779 282.888C401.789 282.872 401.789 282.872 401.799 282.872C401.799 282.856 401.809 282.856 401.809 282.84C401.809 282.84 401.809 282.824 401.819 282.824C401.819 282.808 401.819 282.808 401.829 282.808C401.829 282.808 401.829 282.808 401.829 282.792C401.829 282.776 401.829 282.776 401.829 282.76V279.883H403.715Z" fill="#FE5244"/>
<path d="M401.63 282.681L399.356 285.062C399.296 285.046 399.236 285.03 399.177 285.014C399.157 284.998 399.137 284.998 399.117 284.982C399.087 284.966 399.068 284.95 399.038 284.934C399.018 284.918 398.988 284.902 398.968 284.886C398.66 284.615 398.402 284.087 398.273 283.432C398.253 283.336 398.233 283.24 398.223 283.144C398.213 283.112 398.213 283.064 398.204 283.016C398.184 282.808 398.164 282.601 398.164 282.377V281.69H401.143C401.391 281.674 401.61 282.121 401.63 282.681Z" fill="#FE5244"/>
<path d="M401.63 277.262V281.769C401.61 281.737 401.59 281.689 401.57 281.657C401.531 281.593 401.491 281.545 401.451 281.497C401.352 281.401 401.243 281.338 401.133 281.338H378.579C378.46 281.338 378.351 281.401 378.262 281.497C378.222 281.545 378.182 281.593 378.142 281.657C378.123 281.689 378.103 281.721 378.083 281.769V277.262C378.083 276.654 378.301 276.175 378.579 276.175H401.133C401.401 276.175 401.63 276.67 401.63 277.262Z" fill="#FE5244"/>
<path d="M422.734 342.671V405.332H422.724C418.414 404.149 413.081 401.927 407.261 398.634C403.666 396.604 400.299 394.446 397.28 392.304L398.899 377.758L401.65 353.062C393.019 348.714 391.619 335.35 391.619 335.35H398.561C403.368 335.35 407.251 329.084 407.251 321.364V316.76H402.792C399.663 316.76 397.121 311.805 397.121 306.769V305.139H407.032C408.87 305.139 410.598 306.53 411.7 308.895L418.95 324.481C421.413 329.724 422.734 336.102 422.734 342.671Z" fill="#A0505A"/>
<path d="M422.734 391.217V405.332H422.724C418.414 404.149 413.081 401.927 407.261 398.634C403.666 396.604 400.299 394.446 397.28 392.304L398.899 377.758C402.474 379.165 406.446 381.067 410.578 383.401C415.047 385.926 419.079 388.532 422.456 391.041C422.565 391.089 422.644 391.153 422.734 391.217Z" fill="#73325A"/>
<path d="M407.708 316.76H402.921C399.793 316.76 397.25 311.805 397.25 306.769V305.139H407.708V316.76Z" fill="#A0505A"/>
<path d="M404.699 332.329C404.699 332.329 411.601 336.501 412.227 350.84" stroke="#73325A" stroke-width="5" stroke-miterlimit="10"/>
<path d="M401.67 353.397H406.367" stroke="#73325A" stroke-width="5" stroke-miterlimit="10"/>
<path d="M397.29 174.175L400.438 170.819C404.54 166.455 410.032 170.771 410.419 178.651L411.104 192.606C411.482 200.263 416.715 204.626 420.817 200.71L422.803 198.808" stroke="#FFCF2D" stroke-width="6" stroke-miterlimit="10"/>
<path d="M351.537 122.337L391.987 160.125L412.356 233.735L388.987 208.399L363.593 160.508L351.537 122.337Z" fill="#9A3B82"/>
<path d="M351.646 119.795L392.95 158.398L413.756 233.559" stroke="#FFCF2D" stroke-width="6" stroke-miterlimit="10"/>
<path d="M388.565 210.025C390.455 207.456 386.208 194.355 379.078 180.763C371.948 167.171 364.636 158.234 362.746 160.802C360.856 163.371 365.104 176.472 372.233 190.064C379.363 203.657 386.675 212.593 388.565 210.025Z" fill="white"/>
<path d="M387.416 210.81C389.269 208.293 385.103 195.447 378.111 182.118C371.119 168.788 363.95 160.023 362.097 162.541C360.245 165.058 364.411 177.904 371.403 191.233C378.394 204.563 385.564 213.328 387.416 210.81Z" fill="white" stroke="#FFCF2D" stroke-width="5" stroke-miterlimit="10"/>
<path d="M392.344 204.85L388.491 210.077C389.206 209.102 389.047 206.641 388.183 203.204C386.763 197.545 383.436 189.281 379.006 180.809C374.567 172.353 370.058 165.688 366.831 162.491C364.874 160.54 363.385 159.869 362.67 160.844L366.523 155.617C368.41 153.044 376.057 161.452 383.187 175.055C390.318 188.658 394.241 202.293 392.344 204.85Z" fill="#FFCF2D"/>
<path d="M433.509 184.853C434.602 184.006 435.664 183.255 436.687 182.631C437.293 183.654 437.819 184.853 438.227 186.196C438.634 187.539 438.892 188.945 439.011 190.336C438.068 191.231 437.045 192.126 435.962 192.974C430.53 197.21 425.584 198.824 424.909 196.586C424.224 194.332 428.077 189.089 433.509 184.853Z" fill="#FFCF2D"/>
<path d="M423.916 199.623C424.579 199.623 425.117 198.757 425.117 197.689C425.117 196.621 424.579 195.755 423.916 195.755C423.252 195.755 422.714 196.621 422.714 197.689C422.714 198.757 423.252 199.623 423.916 199.623Z" stroke="#9A3B82" stroke-width="6" stroke-miterlimit="10"/>
<path d="M352.996 392.129V459.808H305.098L311.235 386.31C311.235 389.283 320.581 392.992 332.111 394.59C343.641 396.205 352.996 395.102 352.996 392.129Z" fill="#66B0F0"/>
<path d="M352.778 390.386C352.778 393.359 343.512 394.462 332.091 392.848C320.67 391.233 311.404 387.525 311.404 384.568C311.404 381.594 320.67 380.492 332.091 382.106C343.522 383.704 352.778 387.413 352.778 390.386Z" fill="#3FB1B5"/>
<path d="M359.422 240.353L362.322 243.374C365.222 246.986 361.21 263.131 353.364 279.403C345.518 295.692 336.808 305.954 333.909 302.342L332.478 300.168" stroke="#66B0F0" stroke-width="6" stroke-miterlimit="10"/>
<path d="M319.151 316.185L352.073 267.687L363.583 211.276L328.446 262.667L319.151 316.185Z" fill="#66B0F0"/>
<path d="M317.472 322.068L353.304 269.286L364.993 211.98" stroke="#FE5244" stroke-width="6" stroke-miterlimit="10" stroke-linecap="round"/>
<path d="M336.421 267.527L305.158 315.657C303.638 317.991 301.155 315.785 301.582 312.46L302.456 305.635C302.854 302.55 300.679 300.296 299.1 302.15L288.771 314.251" stroke="#FE5244" stroke-width="6" stroke-miterlimit="10"/>
<path d="M280.359 331.482C279.436 332.729 278.512 333.88 277.618 334.887C276.873 334.136 276.188 333.192 275.582 332.042C274.986 330.891 274.52 329.644 274.192 328.333C274.967 327.086 275.821 325.823 276.744 324.561C281.362 318.311 285.911 314.778 286.914 316.696C287.907 318.614 284.977 325.232 280.359 331.482Z" fill="#FFCF2D"/>
<path d="M287.808 317.351C288.471 317.351 289.009 316.485 289.009 315.417C289.009 314.349 288.471 313.483 287.808 313.483C287.144 313.483 286.606 314.349 286.606 315.417C286.606 316.485 287.144 317.351 287.808 317.351Z" stroke="#FE5244" stroke-width="6" stroke-miterlimit="10"/>
<path d="M337.901 341.185V393.455C336.064 393.327 334.107 393.136 332.091 392.848C324.653 391.809 318.138 389.859 314.493 387.813L315.039 382.026L316.867 362.605H314.503C311.136 362.605 308.415 358.225 308.415 352.806V333.56C308.415 329.756 309.269 326.095 310.828 323.234L318.604 308.927C319.111 308 320.064 308.576 320.064 309.807V329.26C320.064 331.594 319.548 333.848 318.604 335.622L317.909 336.933H326.351C327.572 336.933 328.287 334.743 327.602 333.113C326.559 330.667 325.189 327.182 323.888 323.154C321.296 315.178 325.795 310.718 325.795 310.718L336.093 332.217C337.265 334.823 337.901 337.972 337.901 341.185Z" fill="#FFCF2D"/>
<path d="M320.064 308.768V329.26C320.064 331.594 319.548 333.848 318.605 335.622L317.909 336.933" stroke="white" stroke-width="5" stroke-miterlimit="10" stroke-linecap="round"/>
<path d="M317.909 336.917L312.328 347.003" stroke="white" stroke-width="5" stroke-miterlimit="10" stroke-linecap="round"/>
<path d="M320.063 320.356C320.063 322.69 319.547 324.944 318.603 326.718L317.908 328.029L312.337 338.1" stroke="white" stroke-width="5" stroke-miterlimit="10" stroke-linecap="round"/>
<path d="M320.065 311.469C320.065 313.803 319.548 316.057 318.605 317.831L317.91 319.142L312.338 329.212" stroke="white" stroke-width="5" stroke-miterlimit="10" stroke-linecap="round"/>
<path d="M316.867 363.132H321.147" stroke="white" stroke-width="5" stroke-miterlimit="10" stroke-linecap="round"/>
<path d="M337.901 383.129V393.455C336.064 393.327 334.107 393.135 332.091 392.848C324.653 391.809 318.138 389.859 314.493 387.812L315.039 382.026C318.773 381.147 325.02 381.099 332.101 382.09C334.107 382.394 336.054 382.729 337.901 383.129Z" fill="#FE5244"/>
<path d="M289.834 459.808H234.447V371.428C234.447 375.201 243.554 378.254 254.796 378.254C266.038 378.254 275.145 375.201 275.145 371.428V371.412L289.834 459.808Z" fill="#3FB1B5"/>
<path d="M274.996 369.67C274.996 373.458 265.989 376.511 254.866 376.511C243.743 376.511 234.735 373.458 234.735 369.686V369.67C234.765 365.913 243.762 362.86 254.866 362.86C265.969 362.86 274.976 365.913 274.996 369.67Z" fill="#66B0F0"/>
<path d="M274.996 369.734C274.927 373.474 265.939 376.511 254.866 376.511C252.73 376.511 250.685 376.399 248.758 376.192V343.311H238.251C236.91 343.311 235.827 341.568 235.827 339.411V336.773C235.827 335.59 236.155 334.535 236.672 333.816C236.155 333.097 235.827 332.042 235.827 330.859V328.221C235.827 327.182 236.086 326.223 236.503 325.536C236.086 324.832 235.827 323.889 235.827 322.85V320.213C235.827 319.142 236.096 318.167 236.533 317.447C236.096 316.744 235.827 315.769 235.827 314.698V309.919C235.827 307.761 236.91 306.018 238.251 306.018H251.668C252.115 305.603 252.84 304.132 251.608 303.269L248.728 302.182C246.444 300.344 244.994 297.291 244.994 293.167H255.124C256.822 293.167 258.342 294.893 258.918 297.466L274.748 368.599L274.996 369.734Z" fill="#E57281"/>
<path d="M275.046 369.766C275.016 369.718 274.996 369.686 274.996 369.686C274.996 373.458 265.989 376.511 254.866 376.511C252.73 376.511 250.685 376.399 248.758 376.192V363.196C250.685 362.988 252.74 362.876 254.866 362.876C264.896 362.876 273.219 365.37 274.748 368.615C274.788 368.695 274.897 369.126 275.046 369.766Z" fill="#9A3B82"/>
<path d="M251.896 261.58V274.544C251.896 281.593 248.351 287.3 243.971 287.3C239.591 287.3 236.046 281.593 236.046 274.544V261.58C236.046 264.745 239.591 267.303 243.971 267.303C248.351 267.303 251.896 264.745 251.896 261.58Z" fill="white"/>
<path d="M243.971 267.303C248.348 267.303 251.896 264.741 251.896 261.58C251.896 258.42 248.348 255.858 243.971 255.858C239.594 255.858 236.046 258.42 236.046 261.58C236.046 264.741 239.594 267.303 243.971 267.303Z" fill="#FFCF2D"/>
<path d="M251.896 239.426V274.528C251.896 279.26 250.297 283.384 247.924 285.59C247.924 285.59 247.924 285.59 247.914 285.59C246.752 286.661 245.401 287.284 243.971 287.284C242.541 287.284 241.2 286.677 240.038 285.606C240.028 285.606 240.028 285.59 240.018 285.59C237.645 283.384 236.046 279.26 236.046 274.528V239.426H251.896Z" stroke="#FFCF2D" stroke-width="6" stroke-miterlimit="10"/>
<path d="M243.971 245.148C248.397 245.148 251.985 242.586 251.985 239.425C251.985 236.265 248.397 233.703 243.971 233.703C239.545 233.703 235.956 236.265 235.956 239.425C235.956 242.586 239.545 245.148 243.971 245.148Z" fill="white" stroke="#FFCF2D" stroke-width="5" stroke-miterlimit="10"/>
<path d="M243.971 240.289C244.618 240.289 245.143 239.444 245.143 238.402C245.143 237.361 244.618 236.516 243.971 236.516C243.324 236.516 242.799 237.361 242.799 238.402C242.799 239.444 243.324 240.289 243.971 240.289Z" fill="#FFCF2D"/>
<path d="M241.389 278.812C241.959 278.812 242.422 278.068 242.422 277.15C242.422 276.231 241.959 275.487 241.389 275.487C240.818 275.487 240.356 276.231 240.356 277.15C240.356 278.068 240.818 278.812 241.389 278.812Z" fill="white" stroke="#FFCF2D" stroke-width="5" stroke-miterlimit="10"/>
<path d="M247.586 262.955C248.058 262.955 248.44 262.34 248.44 261.58C248.44 260.821 248.058 260.206 247.586 260.206C247.114 260.206 246.732 260.821 246.732 261.58C246.732 262.34 247.114 262.955 247.586 262.955Z" fill="white"/>
<path d="M239.323 273.265C239.795 273.265 240.177 272.65 240.177 271.891C240.177 271.131 239.795 270.516 239.323 270.516C238.852 270.516 238.469 271.131 238.469 271.891C238.469 272.65 238.852 273.265 239.323 273.265Z" fill="#FFCF2D"/>
<path d="M251.588 352.262H236.354C236.076 352.262 235.996 351.671 236.235 351.463L241.558 348.218C242.392 347.707 242.948 346.412 242.948 344.973V293.886C242.948 290.497 241.856 287.316 240.038 285.606C241.2 286.677 242.541 287.284 243.971 287.284C245.411 287.284 246.752 286.661 247.914 285.59C246.086 287.284 244.994 290.481 244.994 293.87V344.957C244.994 346.396 245.55 347.691 246.384 348.202L251.707 351.447C251.946 351.671 251.866 352.262 251.588 352.262Z" fill="white" stroke="#FFCF2D" stroke-width="5" stroke-miterlimit="10"/>
<path d="M238.33 220.228C239.076 220.228 239.681 219.254 239.681 218.054C239.681 216.853 239.076 215.88 238.33 215.88C237.584 215.88 236.979 216.853 236.979 218.054C236.979 219.254 237.584 220.228 238.33 220.228Z" fill="#FFCF2D"/>
<path d="M247.586 223.728C248.233 223.728 248.758 222.884 248.758 221.842C248.758 220.8 248.233 219.956 247.586 219.956C246.939 219.956 246.414 220.8 246.414 221.842C246.414 222.884 246.939 223.728 247.586 223.728Z" fill="white" stroke="#FFCF2D" stroke-width="5" stroke-miterlimit="10"/>
<path d="M241.846 231.081C242.317 231.081 242.7 230.466 242.7 229.707C242.7 228.947 242.317 228.332 241.846 228.332C241.374 228.332 240.992 228.947 240.992 229.707C240.992 230.466 241.374 231.081 241.846 231.081Z" fill="white" stroke="#FFCF2D" stroke-width="5" stroke-miterlimit="10"/>
<path d="M241.399 214.345C241.788 214.345 242.104 213.837 242.104 213.21C242.104 212.584 241.788 212.075 241.399 212.075C241.009 212.075 240.694 212.584 240.694 213.21C240.694 213.837 241.009 214.345 241.399 214.345Z" fill="#FFCF2D"/>
<path d="M254.18 311.149V343.327H238.251C236.91 343.327 235.827 341.584 235.827 339.426V336.789C235.827 335.606 236.155 334.551 236.672 333.832C236.155 333.112 235.827 332.057 235.827 330.875V328.237C235.827 327.198 236.086 326.239 236.503 325.552C236.086 324.848 235.827 323.905 235.827 322.866V320.229C235.827 319.158 236.096 318.183 236.533 317.463C236.096 316.76 235.827 315.785 235.827 314.714V311.165H254.18V311.149Z" fill="#E57281"/>
<path d="M236.105 330.651C236.105 333.096 237.337 335.079 238.856 335.079H251.747C253.267 335.079 254.498 333.096 254.498 330.651" stroke="#9A3B82" stroke-width="5" stroke-miterlimit="10" stroke-linecap="round"/>
<path d="M236.105 322.674C236.105 325.12 237.337 327.102 238.856 327.102H251.747C253.267 327.102 254.498 325.12 254.498 322.674" stroke="#9A3B82" stroke-width="5" stroke-miterlimit="10" stroke-linecap="round"/>
<path d="M236.105 314.698C236.105 317.144 237.337 319.126 238.856 319.126H251.747C253.267 319.126 254.498 317.144 254.498 314.698" stroke="#9A3B82" stroke-width="5" stroke-miterlimit="10" stroke-linecap="round"/>
<path d="M238.727 343.055H251.747C253.267 343.055 254.498 341.073 254.498 338.627V308.72" stroke="#9A3B82" stroke-width="5" stroke-miterlimit="10" stroke-linecap="round"/>
<path d="M242.322 308.592H241.002C240.565 308.592 240.207 309.167 240.207 309.871C240.207 310.574 240.565 311.149 241.002 311.149H248.39C249.185 311.149 249.84 310.11 249.84 308.816C249.84 307.281 250.615 306.034 251.568 306.034H252.77C253.724 306.034 254.498 307.281 254.498 308.816V313.995" stroke="#9A3B82" stroke-width="5" stroke-miterlimit="10" stroke-linecap="round"/>
<path d="M332.498 143.852L299.437 198.424L261.321 130.793L302.923 83.6695L332.498 143.852Z" fill="#3FB1B5"/>
<path d="M298.146 201.046L258.153 130.489L302.009 81" stroke="#FFCF2D" stroke-width="6" stroke-miterlimit="10"/>
<path d="M298.792 141.039L301.284 140.447C305.386 139.472 309.19 144.044 309.795 150.63L311.97 174.479C312.705 182.52 318.068 187.123 322.627 183.607L333.025 175.598" stroke="#FFCF2D" stroke-width="6" stroke-miterlimit="10"/>
<path d="M346.283 180.17C347.346 181.097 348.349 182.056 349.262 183.015C349.103 184.406 348.806 185.781 348.369 187.107C347.932 188.418 347.375 189.585 346.74 190.56C345.737 189.857 344.684 189.041 343.621 188.114C338.308 183.495 334.604 177.98 335.339 175.79C336.074 173.6 340.97 175.55 346.283 180.17Z" fill="#FFCF2D"/>
<path d="M334.207 177.085C334.87 177.085 335.408 176.219 335.408 175.151C335.408 174.082 334.87 173.216 334.207 173.216C333.543 173.216 333.005 174.082 333.005 175.151C333.005 176.219 333.543 177.085 334.207 177.085Z" stroke="#66B0F0" stroke-width="6" stroke-miterlimit="10"/>
<path d="M216.044 399.929V459.808H173.052V424.53C173.985 428.462 184.93 425.952 196.609 418.759C207.116 412.285 215.23 404.325 216.044 399.929Z" fill="#FE5244"/>
<path d="M216.044 398.187C215.22 402.582 207.116 410.543 196.599 417.017C184.93 424.21 173.985 426.72 173.042 422.787C172.099 418.855 181.533 409.952 193.212 402.758C204.882 395.565 215.111 392.928 216.044 396.86C216.144 397.26 216.144 397.707 216.044 398.187Z" fill="#66B0F0"/>
<path d="M206.937 358.48V409.216L204.564 411.15C202.16 413.037 199.469 414.907 196.609 416.665C191.355 419.91 186.241 422.196 182.129 423.379L184.493 408.433L188.346 384.04C186.519 384.04 184.791 382.729 183.629 380.459L167.808 351.495C170.519 347.515 174.571 352.934 174.571 352.934L173.052 340.449C172.694 337.492 173.231 334.423 174.492 332.201L179.299 323.713C180.252 322.035 181.97 322.69 182.367 324.864L185.784 343.838C185.784 343.838 194.265 354.26 195.854 354.26C197.652 354.26 198.277 351.911 194.92 344.19C192.398 338.387 194.92 334.151 194.92 334.151L203.134 345.277C205.547 348.57 206.937 353.397 206.937 358.48Z" fill="white" stroke="#FFCF2D" stroke-width="5" stroke-miterlimit="10"/>
<path d="M188.833 355.523L182.824 347.787L179.537 329.532C179.16 327.438 177.561 326.814 176.647 328.429" stroke="#FFCF2D" stroke-width="5" stroke-miterlimit="10"/>
<path d="M184.9 358.928L179.676 352.087L176.568 334.807C176.21 332.825 174.641 332.233 173.777 333.768" stroke="#FFCF2D" stroke-width="5" stroke-miterlimit="10"/>
<path d="M180.282 360.67L174.561 352.95" stroke="#FFCF2D" stroke-width="5" stroke-miterlimit="10"/>
<path d="M188.346 384.04H195.03" stroke="#FFCF2D" stroke-width="5" stroke-miterlimit="10"/>
<path d="M206.937 396.141V409.552C203.978 412.078 200.452 414.635 196.609 417.017C191.345 420.262 186.231 422.548 182.109 423.731L184.493 408.769C187.134 406.723 190.094 404.677 193.222 402.758C198.277 399.657 203.064 397.388 206.937 396.141Z" fill="#FFCF2D"/>
<path d="M200.204 227.245L203.223 237.907C203.511 241.855 201.763 245.42 199.31 245.899C196.857 246.363 195.109 249.943 195.397 253.892L195.834 259.806" stroke="#FFCF2D" stroke-width="6" stroke-miterlimit="10"/>
<path d="M235.142 192.989L251.052 153.027L196.331 152.324L178.405 229.147L208 226.909L235.142 192.989Z" fill="#FE5244"/>
<path d="M251.707 150.022L194.493 148.983L175.495 229.611" stroke="#FFCF2D" stroke-width="6" stroke-miterlimit="10"/>
<path d="M234.159 186.995C237.337 195.771 231.934 210.381 222.082 219.62C212.231 228.859 201.674 229.227 198.496 220.451C198.059 219.253 197.791 217.958 197.661 216.567C196.867 207.791 202.061 195.803 210.572 187.826C219.083 179.85 228.121 178.475 232.471 183.91C233.156 184.773 233.722 185.796 234.159 186.995Z" fill="#66B0F0" stroke="white" stroke-width="6" stroke-miterlimit="10"/>
<path d="M231.636 180.026L234.159 186.995C233.722 185.796 233.156 184.773 232.471 183.91C228.121 178.475 219.083 179.85 210.572 187.826C202.061 195.803 196.877 207.791 197.662 216.567C197.781 217.958 198.059 219.253 198.496 220.451L195.973 213.482C192.795 204.706 198.198 190.096 208.05 180.857C217.891 171.634 228.458 171.25 231.636 180.026Z" stroke="white" stroke-width="5" stroke-miterlimit="10" stroke-linecap="round"/>
<path d="M194.98 281.354C194.593 283.192 194.176 284.95 193.739 286.565C192.855 286.549 191.961 286.309 191.087 285.829C190.203 285.35 189.409 284.678 188.694 283.831C188.952 282.121 189.27 280.315 189.657 278.476C191.584 269.269 194.325 262.459 195.794 263.243C197.264 264.042 196.897 272.146 194.98 281.354Z" fill="#FFCF2D"/>
<path d="M195.993 263.275C196.657 263.275 197.195 262.409 197.195 261.341C197.195 260.272 196.657 259.406 195.993 259.406C195.329 259.406 194.791 260.272 194.791 261.341C194.791 262.409 195.329 263.275 195.993 263.275Z" stroke="#66B0F0" stroke-width="6" stroke-miterlimit="10"/>
<path d="M144.718 394.382V459.808H100.067V363.516C100.941 368.231 110.286 378.062 121.886 386.278C134.231 395.054 144.46 398.666 144.718 394.382Z" fill="#66B0F0"/>
<path d="M144.718 392.64C144.45 396.924 134.231 393.295 121.886 384.536C110.286 376.303 100.941 366.473 100.067 361.773C100.007 361.47 99.9876 361.182 100.007 360.926C100.266 356.642 110.495 360.271 122.839 369.03C135.184 377.79 144.986 388.356 144.718 392.64Z" fill="#9A3B82"/>
<path d="M118.291 298.793C119.354 295.276 121.569 293.039 124.002 293.039H131.023L131.391 338.467L136.287 380.22L137.846 393.487C133.715 392.017 128.074 388.932 121.896 384.552C118.401 382.074 114.021 378.398 111.101 375.808V320.532C111.101 319.781 111.19 319.03 111.349 318.327L118.291 298.793Z" fill="#A0505A"/>
<path d="M137.836 393.487C133.704 392.016 128.063 388.931 121.886 384.552C118.39 382.074 114.011 378.397 111.091 375.808V361.917C114.279 363.563 118.996 366.313 122.839 369.03C128.024 372.707 132.552 376.495 136.286 380.22L137.836 393.487Z" fill="#73325A"/>
<path d="M163.985 241.967L126.633 352.582C125.253 356.674 121.449 357.649 118.142 354.756C114.835 351.863 113.276 346.204 114.656 342.096L152.008 231.481L163.985 241.967Z" fill="white" stroke="#FFCF2D" stroke-width="5" stroke-miterlimit="10"/>
<path d="M163.978 241.994C165.361 237.899 163.802 232.234 160.496 229.343C157.19 226.451 153.389 227.427 152.006 231.522C150.623 235.617 152.182 241.282 155.488 244.173C158.794 247.065 162.595 246.089 163.978 241.994Z" fill="#66B0F0" stroke="#FFCF2D" stroke-width="5" stroke-miterlimit="10"/>
<path d="M139.584 284.311L157.231 261.117L156.953 269.365L162.604 271.635L149.733 284.423C153.189 283.464 157.351 282.68 160.777 283.112C164.859 283.623 163.488 291.312 161.959 297.882C165.534 297.322 177.521 285.638 182.04 287.843C184.801 289.186 183.807 298.25 183.013 303.253C184.165 303.349 189.995 303.237 189.995 303.237L186.916 307.761L188.604 312.284C182.05 312.748 181.97 311.085 182.794 303.604C182.933 295.468 177.332 303.285 165.405 307.872C159.496 310.142 160.26 303.956 161.72 297.514C161.134 294.557 156.755 291.344 142.682 297.258L139.584 284.311Z" fill="#FE5244"/>
<path d="M139.842 298.441C142.721 298.441 145.056 294.684 145.056 290.049C145.056 285.414 142.721 281.657 139.842 281.657C136.962 281.657 134.628 285.414 134.628 290.049C134.628 294.684 136.962 298.441 139.842 298.441Z" fill="white" stroke="#FE5244" stroke-width="5" stroke-miterlimit="10"/>
<path d="M138.044 293.038V293.566C138.044 298.937 135.343 303.301 131.996 303.301H125.65V293.038H138.044Z" fill="#A0505A"/>
<path d="M145.771 312.748L144.092 319.078L142.136 326.479L141.073 330.491L139.454 336.613C139.415 336.773 139.355 336.949 139.305 337.093C139.305 337.109 139.296 337.109 139.296 337.125C138.779 338.563 137.776 339.458 136.674 339.458H123.813C122.253 339.458 121.191 337.077 121.767 334.887L122.7 331.354L124.756 323.586L126.524 316.888L128.083 311.005C128.54 309.279 129.642 308.144 130.874 308.144H143.735C145.284 308.176 146.347 310.558 145.771 312.748Z" fill="#A0505A"/>
<path d="M127.06 316.92C127.597 315.961 128.371 315.385 129.205 315.385H141.49C142.781 315.385 143.715 317.176 143.586 319.078" stroke="#73325A" stroke-width="5" stroke-miterlimit="10" stroke-linecap="round"/>
<path d="M125.392 323.618C125.918 322.77 126.643 322.275 127.428 322.275H139.713C141.123 322.275 142.096 324.385 141.739 326.463" stroke="#73325A" stroke-width="5" stroke-miterlimit="10" stroke-linecap="round"/>
<path d="M123.465 331.37C123.991 330.571 124.697 330.107 125.451 330.107H137.736C139.186 330.107 140.189 332.377 139.723 334.519" stroke="#73325A" stroke-width="5" stroke-miterlimit="10" stroke-linecap="round"/>
<path d="M167.888 126.828C168.712 125.406 169.536 124.079 170.35 122.896C171.145 123.488 171.9 124.303 172.585 125.326C173.26 126.349 173.826 127.5 174.253 128.731C173.578 130.121 172.823 131.544 171.999 132.967C167.888 140.08 163.647 144.476 162.505 142.781C161.373 141.087 163.776 133.942 167.888 126.828Z" fill="#FFCF2D"/>
<path d="M139.027 183.159L137.716 184.47C132.959 189.217 123.693 179.003 117.03 161.659C110.356 144.316 108.807 126.429 113.554 121.681L114.904 120.339L122.939 158.382L139.027 183.159Z" fill="#66B0F0"/>
<path d="M152.335 203.667L139.027 183.159L122.929 158.366L114.894 120.339L107.714 86.3388L141.153 129.706L152.335 203.667Z" fill="#66B0F0" stroke="white" stroke-width="6" stroke-miterlimit="10"/>
<path d="M153.378 201.637L142.275 127.803L108.419 84.8842" stroke="#9A3B82" stroke-width="6" stroke-miterlimit="10"/>
<path d="M134.668 151.381C133.813 145.69 135.988 139.952 139.524 138.577C142.881 137.266 146.287 140.352 147.34 145.626L150.131 160.125C151.67 168.149 158.85 167.526 159.853 159.278L161.462 145.962" stroke="#FFCF2D" stroke-width="6" stroke-miterlimit="10"/>
<path d="M161.839 146.33C162.503 146.33 163.041 145.464 163.041 144.396C163.041 143.327 162.503 142.461 161.839 142.461C161.176 142.461 160.638 143.327 160.638 144.396C160.638 145.464 161.176 146.33 161.839 146.33Z" stroke="#66B0F0" stroke-width="6" stroke-miterlimit="10"/>
</svg>
